<mxfile host="app.diagrams.net" modified="2024-05-20T14:59:26.832Z" agent="Mozilla/5.0 (Windows NT 10.0; Win64; x64; rv:126.0) Gecko/20100101 Firefox/126.0" etag="Msvx9_zIjJM8Jq2VniGp" version="24.4.4" type="device">
  <diagram name="Page-1" id="QQTQ0UTaoPSm4uBNrjiQ">
    <mxGraphModel dx="4567" dy="2328" grid="1" gridSize="10" guides="1" tooltips="1" connect="1" arrows="1" fold="1" page="1" pageScale="1" pageWidth="1700" pageHeight="1150" math="0" shadow="0">
      <root>
        <mxCell id="0" />
        <mxCell id="1" parent="0" />
        <mxCell id="G-gwL_Z2dPmAygsZRbij-1" value="" style="edgeStyle=none;rounded=0;orthogonalLoop=1;jettySize=auto;html=1;strokeColor=default;align=center;verticalAlign=middle;fontFamily=Helvetica;fontSize=11;fontColor=default;labelBackgroundColor=default;endArrow=none;endFill=0;" parent="1" source="G-gwL_Z2dPmAygsZRbij-8" target="G-gwL_Z2dPmAygsZRbij-13" edge="1">
          <mxGeometry relative="1" as="geometry" />
        </mxCell>
        <mxCell id="G-gwL_Z2dPmAygsZRbij-2" style="edgeStyle=none;rounded=0;orthogonalLoop=1;jettySize=auto;html=1;exitX=1;exitY=0;exitDx=0;exitDy=0;entryX=0;entryY=1;entryDx=0;entryDy=0;strokeColor=default;align=center;verticalAlign=middle;fontFamily=Helvetica;fontSize=11;fontColor=default;labelBackgroundColor=default;endArrow=none;endFill=0;" parent="1" source="G-gwL_Z2dPmAygsZRbij-8" target="G-gwL_Z2dPmAygsZRbij-11" edge="1">
          <mxGeometry relative="1" as="geometry" />
        </mxCell>
        <mxCell id="G-gwL_Z2dPmAygsZRbij-3" style="edgeStyle=none;rounded=0;orthogonalLoop=1;jettySize=auto;html=1;entryX=0;entryY=0.5;entryDx=0;entryDy=0;strokeColor=default;align=center;verticalAlign=middle;fontFamily=Helvetica;fontSize=11;fontColor=default;labelBackgroundColor=default;endArrow=none;endFill=0;" parent="1" source="G-gwL_Z2dPmAygsZRbij-8" target="G-gwL_Z2dPmAygsZRbij-12" edge="1">
          <mxGeometry relative="1" as="geometry" />
        </mxCell>
        <mxCell id="G-gwL_Z2dPmAygsZRbij-4" value="" style="edgeStyle=none;rounded=0;orthogonalLoop=1;jettySize=auto;html=1;strokeColor=default;align=center;verticalAlign=middle;fontFamily=Helvetica;fontSize=11;fontColor=default;labelBackgroundColor=default;endArrow=none;endFill=0;" parent="1" source="G-gwL_Z2dPmAygsZRbij-8" target="G-gwL_Z2dPmAygsZRbij-14" edge="1">
          <mxGeometry relative="1" as="geometry" />
        </mxCell>
        <mxCell id="G-gwL_Z2dPmAygsZRbij-5" value="" style="edgeStyle=none;rounded=0;orthogonalLoop=1;jettySize=auto;html=1;strokeColor=default;align=center;verticalAlign=middle;fontFamily=Helvetica;fontSize=11;fontColor=default;labelBackgroundColor=default;endArrow=none;endFill=0;" parent="1" source="G-gwL_Z2dPmAygsZRbij-8" target="G-gwL_Z2dPmAygsZRbij-17" edge="1">
          <mxGeometry relative="1" as="geometry" />
        </mxCell>
        <mxCell id="G-gwL_Z2dPmAygsZRbij-6" style="edgeStyle=none;rounded=0;orthogonalLoop=1;jettySize=auto;html=1;strokeColor=default;align=center;verticalAlign=middle;fontFamily=Helvetica;fontSize=11;fontColor=default;labelBackgroundColor=default;endArrow=none;endFill=0;" parent="1" source="G-gwL_Z2dPmAygsZRbij-8" target="G-gwL_Z2dPmAygsZRbij-16" edge="1">
          <mxGeometry relative="1" as="geometry" />
        </mxCell>
        <mxCell id="G-gwL_Z2dPmAygsZRbij-7" style="edgeStyle=none;rounded=0;orthogonalLoop=1;jettySize=auto;html=1;strokeColor=default;align=center;verticalAlign=middle;fontFamily=Helvetica;fontSize=11;fontColor=default;labelBackgroundColor=default;endArrow=none;endFill=0;" parent="1" source="G-gwL_Z2dPmAygsZRbij-8" target="G-gwL_Z2dPmAygsZRbij-15" edge="1">
          <mxGeometry relative="1" as="geometry" />
        </mxCell>
        <mxCell id="G-gwL_Z2dPmAygsZRbij-8" value="User" style="whiteSpace=wrap;html=1;align=center;" parent="1" vertex="1">
          <mxGeometry x="190" y="90" width="100" height="40" as="geometry" />
        </mxCell>
        <mxCell id="G-gwL_Z2dPmAygsZRbij-9" style="edgeStyle=orthogonalEdgeStyle;rounded=0;orthogonalLoop=1;jettySize=auto;html=1;exitX=0.5;exitY=1;exitDx=0;exitDy=0;entryX=0.5;entryY=0;entryDx=0;entryDy=0;endArrow=none;endFill=0;" parent="1" source="G-gwL_Z2dPmAygsZRbij-10" target="G-gwL_Z2dPmAygsZRbij-8" edge="1">
          <mxGeometry relative="1" as="geometry" />
        </mxCell>
        <mxCell id="G-gwL_Z2dPmAygsZRbij-10" value="user_&lt;span style=&quot;background-color: initial;&quot;&gt;id&lt;/span&gt;" style="ellipse;whiteSpace=wrap;html=1;align=center;fontStyle=4" parent="1" vertex="1">
          <mxGeometry x="190" y="10" width="100" height="40" as="geometry" />
        </mxCell>
        <mxCell id="G-gwL_Z2dPmAygsZRbij-11" value="first_name" style="ellipse;whiteSpace=wrap;html=1;align=center;" parent="1" vertex="1">
          <mxGeometry x="310" y="10" width="100" height="40" as="geometry" />
        </mxCell>
        <mxCell id="G-gwL_Z2dPmAygsZRbij-12" value="last_name" style="ellipse;whiteSpace=wrap;html=1;align=center;" parent="1" vertex="1">
          <mxGeometry x="370" y="60" width="100" height="40" as="geometry" />
        </mxCell>
        <mxCell id="G-gwL_Z2dPmAygsZRbij-13" value="national_code" style="ellipse;whiteSpace=wrap;html=1;align=center;" parent="1" vertex="1">
          <mxGeometry x="370" y="110" width="100" height="40" as="geometry" />
        </mxCell>
        <mxCell id="G-gwL_Z2dPmAygsZRbij-14" value="email" style="ellipse;whiteSpace=wrap;html=1;align=center;" parent="1" vertex="1">
          <mxGeometry x="20" y="160" width="100" height="40" as="geometry" />
        </mxCell>
        <mxCell id="G-gwL_Z2dPmAygsZRbij-15" value="password" style="ellipse;whiteSpace=wrap;html=1;align=center;" parent="1" vertex="1">
          <mxGeometry x="20" y="110" width="100" height="40" as="geometry" />
        </mxCell>
        <mxCell id="G-gwL_Z2dPmAygsZRbij-16" value="phone_number" style="ellipse;whiteSpace=wrap;html=1;align=center;" parent="1" vertex="1">
          <mxGeometry x="20" y="60" width="100" height="40" as="geometry" />
        </mxCell>
        <mxCell id="G-gwL_Z2dPmAygsZRbij-17" value="address" style="ellipse;whiteSpace=wrap;html=1;align=center;" parent="1" vertex="1">
          <mxGeometry x="80" y="10" width="100" height="40" as="geometry" />
        </mxCell>
        <mxCell id="G-gwL_Z2dPmAygsZRbij-18" style="edgeStyle=none;rounded=0;orthogonalLoop=1;jettySize=auto;html=1;exitX=1;exitY=0;exitDx=0;exitDy=0;strokeColor=default;align=center;verticalAlign=middle;fontFamily=Helvetica;fontSize=11;fontColor=default;labelBackgroundColor=default;endArrow=none;endFill=0;entryX=0;entryY=1;entryDx=0;entryDy=0;" parent="1" source="G-gwL_Z2dPmAygsZRbij-21" target="G-gwL_Z2dPmAygsZRbij-123" edge="1">
          <mxGeometry relative="1" as="geometry">
            <mxPoint x="338.93097849851154" y="318.1376793795423" as="targetPoint" />
          </mxGeometry>
        </mxCell>
        <mxCell id="G-gwL_Z2dPmAygsZRbij-19" style="edgeStyle=none;rounded=0;orthogonalLoop=1;jettySize=auto;html=1;exitX=1;exitY=1;exitDx=0;exitDy=0;strokeColor=default;align=center;verticalAlign=middle;fontFamily=Helvetica;fontSize=11;fontColor=default;labelBackgroundColor=default;endArrow=none;endFill=0;" parent="1" source="G-gwL_Z2dPmAygsZRbij-21" target="G-gwL_Z2dPmAygsZRbij-27" edge="1">
          <mxGeometry relative="1" as="geometry" />
        </mxCell>
        <mxCell id="G-gwL_Z2dPmAygsZRbij-20" style="edgeStyle=none;rounded=0;orthogonalLoop=1;jettySize=auto;html=1;exitX=1;exitY=0.5;exitDx=0;exitDy=0;strokeColor=default;align=center;verticalAlign=middle;fontFamily=Helvetica;fontSize=11;fontColor=default;labelBackgroundColor=default;endArrow=none;endFill=0;" parent="1" source="G-gwL_Z2dPmAygsZRbij-21" target="G-gwL_Z2dPmAygsZRbij-25" edge="1">
          <mxGeometry relative="1" as="geometry" />
        </mxCell>
        <mxCell id="G-gwL_Z2dPmAygsZRbij-21" value="Wallet" style="whiteSpace=wrap;html=1;align=center;" parent="1" vertex="1">
          <mxGeometry x="190" y="360" width="100" height="40" as="geometry" />
        </mxCell>
        <mxCell id="G-gwL_Z2dPmAygsZRbij-22" style="rounded=0;orthogonalLoop=1;jettySize=auto;html=1;entryX=0;entryY=0;entryDx=0;entryDy=0;endArrow=none;endFill=0;" parent="1" source="G-gwL_Z2dPmAygsZRbij-23" target="G-gwL_Z2dPmAygsZRbij-21" edge="1">
          <mxGeometry relative="1" as="geometry" />
        </mxCell>
        <mxCell id="G-gwL_Z2dPmAygsZRbij-23" value="wallet_address" style="ellipse;whiteSpace=wrap;html=1;align=center;fontStyle=4" parent="1" vertex="1">
          <mxGeometry x="60" y="280" width="100" height="40" as="geometry" />
        </mxCell>
        <mxCell id="G-gwL_Z2dPmAygsZRbij-25" value="free_value" style="ellipse;whiteSpace=wrap;html=1;align=center;fontFamily=Helvetica;fontSize=11;fontColor=default;labelBackgroundColor=default;" parent="1" vertex="1">
          <mxGeometry x="380" y="360" width="100" height="40" as="geometry" />
        </mxCell>
        <mxCell id="G-gwL_Z2dPmAygsZRbij-26" style="edgeStyle=none;rounded=0;orthogonalLoop=1;jettySize=auto;html=1;strokeColor=default;align=center;verticalAlign=middle;fontFamily=Helvetica;fontSize=11;fontColor=default;labelBackgroundColor=default;endArrow=none;endFill=0;" parent="1" source="G-gwL_Z2dPmAygsZRbij-27" target="G-gwL_Z2dPmAygsZRbij-28" edge="1">
          <mxGeometry relative="1" as="geometry" />
        </mxCell>
        <mxCell id="G-gwL_Z2dPmAygsZRbij-27" value="locked_value" style="ellipse;whiteSpace=wrap;html=1;align=center;fontFamily=Helvetica;fontSize=11;fontColor=default;labelBackgroundColor=default;" parent="1" vertex="1">
          <mxGeometry x="310" y="430" width="100" height="40" as="geometry" />
        </mxCell>
        <mxCell id="G-gwL_Z2dPmAygsZRbij-28" value="total_value" style="ellipse;whiteSpace=wrap;html=1;align=center;dashed=1;fontFamily=Helvetica;fontSize=11;fontColor=default;labelBackgroundColor=default;" parent="1" vertex="1">
          <mxGeometry x="480" y="430" width="100" height="40" as="geometry" />
        </mxCell>
        <mxCell id="G-gwL_Z2dPmAygsZRbij-29" style="edgeStyle=none;rounded=0;orthogonalLoop=1;jettySize=auto;html=1;exitX=1;exitY=1;exitDx=0;exitDy=0;entryX=0.284;entryY=0.12;entryDx=0;entryDy=0;entryPerimeter=0;strokeColor=default;align=center;verticalAlign=middle;fontFamily=Helvetica;fontSize=11;fontColor=default;labelBackgroundColor=default;endArrow=none;endFill=0;" parent="1" source="G-gwL_Z2dPmAygsZRbij-25" target="G-gwL_Z2dPmAygsZRbij-28" edge="1">
          <mxGeometry relative="1" as="geometry" />
        </mxCell>
        <mxCell id="G-gwL_Z2dPmAygsZRbij-31" value="owns" style="shape=rhombus;perimeter=rhombusPerimeter;whiteSpace=wrap;html=1;align=center;" parent="1" vertex="1">
          <mxGeometry x="190" y="210" width="100" height="60" as="geometry" />
        </mxCell>
        <mxCell id="G-gwL_Z2dPmAygsZRbij-32" value="" style="endArrow=none;html=1;rounded=0;entryX=0.5;entryY=1;entryDx=0;entryDy=0;" parent="1" target="G-gwL_Z2dPmAygsZRbij-8" edge="1">
          <mxGeometry relative="1" as="geometry">
            <mxPoint x="240" y="210" as="sourcePoint" />
            <mxPoint x="400" y="360" as="targetPoint" />
          </mxGeometry>
        </mxCell>
        <mxCell id="G-gwL_Z2dPmAygsZRbij-33" value="1" style="resizable=0;html=1;whiteSpace=wrap;align=right;verticalAlign=bottom;" parent="G-gwL_Z2dPmAygsZRbij-32" connectable="0" vertex="1">
          <mxGeometry x="1" relative="1" as="geometry">
            <mxPoint y="20" as="offset" />
          </mxGeometry>
        </mxCell>
        <mxCell id="G-gwL_Z2dPmAygsZRbij-34" value="" style="endArrow=none;html=1;rounded=0;entryX=0.5;entryY=0;entryDx=0;entryDy=0;exitX=0.5;exitY=1;exitDx=0;exitDy=0;" parent="1" source="G-gwL_Z2dPmAygsZRbij-31" target="G-gwL_Z2dPmAygsZRbij-21" edge="1">
          <mxGeometry relative="1" as="geometry">
            <mxPoint x="190" y="220" as="sourcePoint" />
            <mxPoint x="190" y="320" as="targetPoint" />
          </mxGeometry>
        </mxCell>
        <mxCell id="G-gwL_Z2dPmAygsZRbij-35" value="1" style="resizable=0;html=1;whiteSpace=wrap;align=right;verticalAlign=bottom;" parent="G-gwL_Z2dPmAygsZRbij-34" connectable="0" vertex="1">
          <mxGeometry x="1" relative="1" as="geometry">
            <mxPoint as="offset" />
          </mxGeometry>
        </mxCell>
        <mxCell id="G-gwL_Z2dPmAygsZRbij-36" value="orderbooks" style="rounded=1;arcSize=10;whiteSpace=wrap;html=1;align=center;" parent="1" vertex="1">
          <mxGeometry x="860" y="190" width="100" height="40" as="geometry" />
        </mxCell>
        <mxCell id="G-gwL_Z2dPmAygsZRbij-37" value="markets" style="rounded=1;arcSize=10;whiteSpace=wrap;html=1;align=center;" parent="1" vertex="1">
          <mxGeometry x="860" y="-10" width="100" height="40" as="geometry" />
        </mxCell>
        <mxCell id="G-gwL_Z2dPmAygsZRbij-38" value="" style="triangle;whiteSpace=wrap;html=1;direction=south;" parent="1" vertex="1">
          <mxGeometry x="885" y="270" width="50" height="30" as="geometry" />
        </mxCell>
        <mxCell id="G-gwL_Z2dPmAygsZRbij-39" value="saleslist(asc)" style="rounded=1;arcSize=10;whiteSpace=wrap;html=1;align=center;" parent="1" vertex="1">
          <mxGeometry x="1030" y="390" width="100" height="40" as="geometry" />
        </mxCell>
        <mxCell id="G-gwL_Z2dPmAygsZRbij-40" value="&lt;span&gt;&lt;span data-dobid=&quot;hdw&quot;&gt;purchases&lt;/span&gt;&lt;/span&gt;list(dsc)" style="rounded=1;arcSize=10;whiteSpace=wrap;html=1;align=center;" parent="1" vertex="1">
          <mxGeometry x="690" y="390" width="100" height="40" as="geometry" />
        </mxCell>
        <mxCell id="G-gwL_Z2dPmAygsZRbij-42" value="" style="endArrow=none;html=1;rounded=0;exitX=0.5;exitY=1;exitDx=0;exitDy=0;entryX=0.5;entryY=0;entryDx=0;entryDy=0;" parent="1" source="G-gwL_Z2dPmAygsZRbij-52" target="G-gwL_Z2dPmAygsZRbij-36" edge="1">
          <mxGeometry relative="1" as="geometry">
            <mxPoint x="940" y="160" as="sourcePoint" />
            <mxPoint x="910" y="80" as="targetPoint" />
          </mxGeometry>
        </mxCell>
        <mxCell id="G-gwL_Z2dPmAygsZRbij-43" value="N" style="resizable=0;html=1;whiteSpace=wrap;align=right;verticalAlign=bottom;" parent="G-gwL_Z2dPmAygsZRbij-42" connectable="0" vertex="1">
          <mxGeometry x="1" relative="1" as="geometry" />
        </mxCell>
        <mxCell id="G-gwL_Z2dPmAygsZRbij-44" value="" style="endArrow=none;html=1;rounded=0;exitX=0.5;exitY=1;exitDx=0;exitDy=0;entryX=0;entryY=0.5;entryDx=0;entryDy=0;" parent="1" source="G-gwL_Z2dPmAygsZRbij-36" target="G-gwL_Z2dPmAygsZRbij-38" edge="1">
          <mxGeometry relative="1" as="geometry">
            <mxPoint x="830" y="260" as="sourcePoint" />
            <mxPoint x="990" y="260" as="targetPoint" />
          </mxGeometry>
        </mxCell>
        <mxCell id="G-gwL_Z2dPmAygsZRbij-45" value="" style="endArrow=none;html=1;rounded=0;exitX=0.5;exitY=0;exitDx=0;exitDy=0;entryX=0.5;entryY=0;entryDx=0;entryDy=0;" parent="1" source="G-gwL_Z2dPmAygsZRbij-38" target="G-gwL_Z2dPmAygsZRbij-39" edge="1">
          <mxGeometry relative="1" as="geometry">
            <mxPoint x="830" y="260" as="sourcePoint" />
            <mxPoint x="990" y="260" as="targetPoint" />
          </mxGeometry>
        </mxCell>
        <mxCell id="G-gwL_Z2dPmAygsZRbij-46" value="" style="endArrow=none;html=1;rounded=0;exitX=0.5;exitY=0;exitDx=0;exitDy=0;" parent="1" source="G-gwL_Z2dPmAygsZRbij-40" target="G-gwL_Z2dPmAygsZRbij-38" edge="1">
          <mxGeometry relative="1" as="geometry">
            <mxPoint x="830" y="260" as="sourcePoint" />
            <mxPoint x="990" y="260" as="targetPoint" />
          </mxGeometry>
        </mxCell>
        <mxCell id="G-gwL_Z2dPmAygsZRbij-52" value="write order in" style="shape=rhombus;perimeter=rhombusPerimeter;whiteSpace=wrap;html=1;align=center;" parent="1" vertex="1">
          <mxGeometry x="850" y="80" width="120" height="60" as="geometry" />
        </mxCell>
        <mxCell id="G-gwL_Z2dPmAygsZRbij-53" value="" style="endArrow=none;html=1;rounded=0;exitX=0.5;exitY=0;exitDx=0;exitDy=0;entryX=0.5;entryY=1;entryDx=0;entryDy=0;" parent="1" source="G-gwL_Z2dPmAygsZRbij-52" target="G-gwL_Z2dPmAygsZRbij-37" edge="1">
          <mxGeometry relative="1" as="geometry">
            <mxPoint x="1035" y="50" as="sourcePoint" />
            <mxPoint x="1195" y="50" as="targetPoint" />
          </mxGeometry>
        </mxCell>
        <mxCell id="G-gwL_Z2dPmAygsZRbij-54" value="1" style="resizable=0;html=1;whiteSpace=wrap;align=right;verticalAlign=bottom;" parent="G-gwL_Z2dPmAygsZRbij-53" connectable="0" vertex="1">
          <mxGeometry x="1" relative="1" as="geometry">
            <mxPoint y="20" as="offset" />
          </mxGeometry>
        </mxCell>
        <mxCell id="G-gwL_Z2dPmAygsZRbij-55" value="deal with" style="shape=rhombus;perimeter=rhombusPerimeter;whiteSpace=wrap;html=1;align=center;" parent="1" vertex="1">
          <mxGeometry x="865" y="380" width="90" height="60" as="geometry" />
        </mxCell>
        <mxCell id="G-gwL_Z2dPmAygsZRbij-56" value="" style="endArrow=none;html=1;rounded=0;exitX=1;exitY=0.5;exitDx=0;exitDy=0;entryX=0;entryY=0.5;entryDx=0;entryDy=0;" parent="1" source="G-gwL_Z2dPmAygsZRbij-40" target="G-gwL_Z2dPmAygsZRbij-55" edge="1">
          <mxGeometry relative="1" as="geometry">
            <mxPoint x="870" y="410" as="sourcePoint" />
            <mxPoint x="1030" y="410" as="targetPoint" />
          </mxGeometry>
        </mxCell>
        <mxCell id="G-gwL_Z2dPmAygsZRbij-57" value="" style="endArrow=none;html=1;rounded=0;exitX=1;exitY=0.5;exitDx=0;exitDy=0;entryX=0;entryY=0.5;entryDx=0;entryDy=0;" parent="1" source="G-gwL_Z2dPmAygsZRbij-55" target="G-gwL_Z2dPmAygsZRbij-39" edge="1">
          <mxGeometry relative="1" as="geometry">
            <mxPoint x="870" y="410" as="sourcePoint" />
            <mxPoint x="1030" y="410" as="targetPoint" />
          </mxGeometry>
        </mxCell>
        <mxCell id="G-gwL_Z2dPmAygsZRbij-58" value="" style="endArrow=none;dashed=1;html=1;rounded=0;" parent="1" edge="1">
          <mxGeometry width="50" height="50" relative="1" as="geometry">
            <mxPoint x="670" y="470" as="sourcePoint" />
            <mxPoint x="1150" y="470" as="targetPoint" />
          </mxGeometry>
        </mxCell>
        <mxCell id="G-gwL_Z2dPmAygsZRbij-59" value="" style="endArrow=none;dashed=1;html=1;rounded=0;" parent="1" edge="1">
          <mxGeometry width="50" height="50" relative="1" as="geometry">
            <mxPoint x="1150" y="350" as="sourcePoint" />
            <mxPoint x="1150" y="470" as="targetPoint" />
          </mxGeometry>
        </mxCell>
        <mxCell id="G-gwL_Z2dPmAygsZRbij-60" value="" style="endArrow=none;dashed=1;html=1;rounded=0;" parent="1" edge="1">
          <mxGeometry width="50" height="50" relative="1" as="geometry">
            <mxPoint x="670" y="470" as="sourcePoint" />
            <mxPoint x="670" y="350" as="targetPoint" />
          </mxGeometry>
        </mxCell>
        <mxCell id="G-gwL_Z2dPmAygsZRbij-61" value="" style="endArrow=none;dashed=1;html=1;rounded=0;" parent="1" edge="1">
          <mxGeometry width="50" height="50" relative="1" as="geometry">
            <mxPoint x="670" y="350" as="sourcePoint" />
            <mxPoint x="1150" y="350" as="targetPoint" />
          </mxGeometry>
        </mxCell>
        <mxCell id="G-gwL_Z2dPmAygsZRbij-62" value="" style="endArrow=none;html=1;rounded=0;exitX=0.5;exitY=1;exitDx=0;exitDy=0;entryX=0.5;entryY=0;entryDx=0;entryDy=0;" parent="1" source="G-gwL_Z2dPmAygsZRbij-64" target="G-gwL_Z2dPmAygsZRbij-133" edge="1">
          <mxGeometry relative="1" as="geometry">
            <mxPoint x="870" y="590" as="sourcePoint" />
            <mxPoint x="910.0000000000002" y="716.7200000000003" as="targetPoint" />
          </mxGeometry>
        </mxCell>
        <mxCell id="G-gwL_Z2dPmAygsZRbij-63" value="N" style="resizable=0;html=1;whiteSpace=wrap;align=right;verticalAlign=bottom;" parent="G-gwL_Z2dPmAygsZRbij-62" connectable="0" vertex="1">
          <mxGeometry x="1" relative="1" as="geometry" />
        </mxCell>
        <mxCell id="G-gwL_Z2dPmAygsZRbij-64" value="make a list of" style="shape=rhombus;perimeter=rhombusPerimeter;whiteSpace=wrap;html=1;align=center;" parent="1" vertex="1">
          <mxGeometry x="850" y="545" width="120" height="60" as="geometry" />
        </mxCell>
        <mxCell id="G-gwL_Z2dPmAygsZRbij-65" value="" style="endArrow=none;html=1;rounded=0;entryX=0.5;entryY=0;entryDx=0;entryDy=0;" parent="1" target="G-gwL_Z2dPmAygsZRbij-64" edge="1">
          <mxGeometry relative="1" as="geometry">
            <mxPoint x="910" y="440" as="sourcePoint" />
            <mxPoint x="1030" y="440" as="targetPoint" />
          </mxGeometry>
        </mxCell>
        <mxCell id="G-gwL_Z2dPmAygsZRbij-66" value="make a deal" style="shape=rhombus;perimeter=rhombusPerimeter;whiteSpace=wrap;html=1;align=center;" parent="1" vertex="1">
          <mxGeometry x="1210" y="380" width="120" height="60" as="geometry" />
        </mxCell>
        <mxCell id="G-gwL_Z2dPmAygsZRbij-67" value="" style="endArrow=none;html=1;rounded=0;entryX=0;entryY=0.5;entryDx=0;entryDy=0;" parent="1" target="G-gwL_Z2dPmAygsZRbij-66" edge="1">
          <mxGeometry relative="1" as="geometry">
            <mxPoint x="1150" y="410" as="sourcePoint" />
            <mxPoint x="1340" y="490" as="targetPoint" />
          </mxGeometry>
        </mxCell>
        <mxCell id="G-gwL_Z2dPmAygsZRbij-68" value="" style="endArrow=none;html=1;rounded=0;exitX=1;exitY=0.5;exitDx=0;exitDy=0;entryX=0;entryY=0.5;entryDx=0;entryDy=0;" parent="1" source="G-gwL_Z2dPmAygsZRbij-66" edge="1">
          <mxGeometry relative="1" as="geometry">
            <mxPoint x="1280" y="520" as="sourcePoint" />
            <mxPoint x="1400" y="410" as="targetPoint" />
          </mxGeometry>
        </mxCell>
        <mxCell id="G-gwL_Z2dPmAygsZRbij-69" value="N" style="resizable=0;html=1;whiteSpace=wrap;align=right;verticalAlign=bottom;" parent="G-gwL_Z2dPmAygsZRbij-68" connectable="0" vertex="1">
          <mxGeometry x="1" relative="1" as="geometry" />
        </mxCell>
        <mxCell id="G-gwL_Z2dPmAygsZRbij-71" value="" style="endArrow=none;html=1;rounded=0;entryX=0.25;entryY=1;entryDx=0;entryDy=0;exitX=1;exitY=0.5;exitDx=0;exitDy=0;" parent="1" edge="1" target="G-gwL_Z2dPmAygsZRbij-90" source="G-gwL_Z2dPmAygsZRbij-189">
          <mxGeometry relative="1" as="geometry">
            <mxPoint x="1250" y="640" as="sourcePoint" />
            <mxPoint x="1450" y="430" as="targetPoint" />
            <Array as="points">
              <mxPoint x="1425" y="640" />
            </Array>
          </mxGeometry>
        </mxCell>
        <mxCell id="G-gwL_Z2dPmAygsZRbij-72" value="" style="endArrow=none;html=1;rounded=0;exitX=1;exitY=0.5;exitDx=0;exitDy=0;entryX=0;entryY=0.5;entryDx=0;entryDy=0;" parent="1" source="G-gwL_Z2dPmAygsZRbij-88" target="G-gwL_Z2dPmAygsZRbij-37" edge="1">
          <mxGeometry relative="1" as="geometry">
            <mxPoint x="760" y="9.999999999999886" as="sourcePoint" />
            <mxPoint x="1030" y="160" as="targetPoint" />
          </mxGeometry>
        </mxCell>
        <mxCell id="G-gwL_Z2dPmAygsZRbij-74" value="" style="endArrow=none;html=1;rounded=0;exitX=1;exitY=0.5;exitDx=0;exitDy=0;entryX=0.5;entryY=0;entryDx=0;entryDy=0;" parent="1" source="G-gwL_Z2dPmAygsZRbij-37" edge="1" target="G-gwL_Z2dPmAygsZRbij-188">
          <mxGeometry relative="1" as="geometry">
            <mxPoint x="1040" y="9.5" as="sourcePoint" />
            <mxPoint x="1450" y="120" as="targetPoint" />
            <Array as="points">
              <mxPoint x="1270" y="10" />
              <mxPoint x="1295" y="10" />
            </Array>
          </mxGeometry>
        </mxCell>
        <mxCell id="G-gwL_Z2dPmAygsZRbij-75" value="" style="endArrow=none;html=1;rounded=0;entryX=0.5;entryY=0;entryDx=0;entryDy=0;exitX=1;exitY=0.5;exitDx=0;exitDy=0;" parent="1" edge="1" source="G-gwL_Z2dPmAygsZRbij-188">
          <mxGeometry relative="1" as="geometry">
            <mxPoint x="1450" y="180" as="sourcePoint" />
            <mxPoint x="1450" y="390" as="targetPoint" />
            <Array as="points">
              <mxPoint x="1450" y="160" />
            </Array>
          </mxGeometry>
        </mxCell>
        <mxCell id="G-gwL_Z2dPmAygsZRbij-76" value="N" style="resizable=0;html=1;whiteSpace=wrap;align=right;verticalAlign=bottom;" parent="G-gwL_Z2dPmAygsZRbij-75" connectable="0" vertex="1">
          <mxGeometry x="1" relative="1" as="geometry" />
        </mxCell>
        <mxCell id="G-gwL_Z2dPmAygsZRbij-77" value="value" style="ellipse;whiteSpace=wrap;html=1;align=center;" parent="1" vertex="1">
          <mxGeometry x="1700" y="370" width="100" height="40" as="geometry" />
        </mxCell>
        <mxCell id="G-gwL_Z2dPmAygsZRbij-78" value="min fill remainder" style="ellipse;whiteSpace=wrap;html=1;align=center;" parent="1" vertex="1">
          <mxGeometry x="1680" y="440" width="100" height="40" as="geometry" />
        </mxCell>
        <mxCell id="G-gwL_Z2dPmAygsZRbij-79" value="" style="endArrow=none;html=1;rounded=0;exitX=1;exitY=0.25;exitDx=0;exitDy=0;entryX=0;entryY=0.5;entryDx=0;entryDy=0;" parent="1" edge="1" target="G-gwL_Z2dPmAygsZRbij-105" source="G-gwL_Z2dPmAygsZRbij-90">
          <mxGeometry relative="1" as="geometry">
            <mxPoint x="1500" y="410" as="sourcePoint" />
            <mxPoint x="1660" y="380" as="targetPoint" />
          </mxGeometry>
        </mxCell>
        <mxCell id="G-gwL_Z2dPmAygsZRbij-80" value="" style="endArrow=none;html=1;rounded=0;exitX=1;exitY=0.5;exitDx=0;exitDy=0;entryX=0;entryY=0.5;entryDx=0;entryDy=0;" parent="1" edge="1" target="G-gwL_Z2dPmAygsZRbij-106">
          <mxGeometry relative="1" as="geometry">
            <mxPoint x="1500" y="410" as="sourcePoint" />
            <mxPoint x="1680" y="450" as="targetPoint" />
          </mxGeometry>
        </mxCell>
        <mxCell id="G-gwL_Z2dPmAygsZRbij-81" value="" style="endArrow=none;html=1;rounded=0;exitX=1;exitY=0.5;exitDx=0;exitDy=0;entryX=0;entryY=0.5;entryDx=0;entryDy=0;" parent="1" target="G-gwL_Z2dPmAygsZRbij-77" edge="1">
          <mxGeometry relative="1" as="geometry">
            <mxPoint x="1500" y="410" as="sourcePoint" />
            <mxPoint x="1860" y="350" as="targetPoint" />
          </mxGeometry>
        </mxCell>
        <mxCell id="G-gwL_Z2dPmAygsZRbij-82" value="" style="endArrow=none;html=1;rounded=0;exitX=1;exitY=0.75;exitDx=0;exitDy=0;entryX=0;entryY=0.5;entryDx=0;entryDy=0;" parent="1" source="G-gwL_Z2dPmAygsZRbij-90" target="G-gwL_Z2dPmAygsZRbij-78" edge="1">
          <mxGeometry relative="1" as="geometry">
            <mxPoint x="1500" y="410" as="sourcePoint" />
            <mxPoint x="1860" y="350" as="targetPoint" />
          </mxGeometry>
        </mxCell>
        <mxCell id="G-gwL_Z2dPmAygsZRbij-83" value="book_id" style="ellipse;whiteSpace=wrap;html=1;align=center;fontStyle=4;" parent="1" vertex="1">
          <mxGeometry x="1005" y="190" width="100" height="40" as="geometry" />
        </mxCell>
        <mxCell id="G-gwL_Z2dPmAygsZRbij-84" value="" style="endArrow=none;html=1;rounded=0;exitX=1;exitY=0.5;exitDx=0;exitDy=0;entryX=0;entryY=0.5;entryDx=0;entryDy=0;" parent="1" source="G-gwL_Z2dPmAygsZRbij-36" target="G-gwL_Z2dPmAygsZRbij-83" edge="1">
          <mxGeometry relative="1" as="geometry">
            <mxPoint x="970" y="340" as="sourcePoint" />
            <mxPoint x="1130" y="340" as="targetPoint" />
          </mxGeometry>
        </mxCell>
        <mxCell id="G-gwL_Z2dPmAygsZRbij-88" value="in time price" style="ellipse;whiteSpace=wrap;html=1;align=center;dashed=1;" parent="1" vertex="1">
          <mxGeometry x="660" y="-10" width="100" height="40" as="geometry" />
        </mxCell>
        <mxCell id="G-gwL_Z2dPmAygsZRbij-90" value="&lt;div&gt;trade&lt;/div&gt;" style="shape=ext;margin=3;double=1;whiteSpace=wrap;html=1;align=center;" parent="1" vertex="1">
          <mxGeometry x="1400" y="390" width="100" height="40" as="geometry" />
        </mxCell>
        <mxCell id="G-gwL_Z2dPmAygsZRbij-91" value="" style="endArrow=none;html=1;rounded=0;exitX=0.75;exitY=0;exitDx=0;exitDy=0;entryX=0.5;entryY=1;entryDx=0;entryDy=0;" parent="1" source="G-gwL_Z2dPmAygsZRbij-90" edge="1" target="G-gwL_Z2dPmAygsZRbij-109">
          <mxGeometry relative="1" as="geometry">
            <mxPoint x="920" y="330" as="sourcePoint" />
            <mxPoint x="1540" y="340" as="targetPoint" />
          </mxGeometry>
        </mxCell>
        <mxCell id="G-gwL_Z2dPmAygsZRbij-92" value="" style="endArrow=none;html=1;rounded=0;exitX=1;exitY=0;exitDx=0;exitDy=0;entryX=0.5;entryY=1;entryDx=0;entryDy=0;" parent="1" source="G-gwL_Z2dPmAygsZRbij-90" edge="1" target="G-gwL_Z2dPmAygsZRbij-107">
          <mxGeometry relative="1" as="geometry">
            <mxPoint x="920" y="330" as="sourcePoint" />
            <mxPoint x="1660" y="340" as="targetPoint" />
          </mxGeometry>
        </mxCell>
        <mxCell id="G-gwL_Z2dPmAygsZRbij-93" value="" style="endArrow=none;dashed=1;html=1;rounded=0;" parent="1" edge="1">
          <mxGeometry width="50" height="50" relative="1" as="geometry">
            <mxPoint x="1510" y="228.75" as="sourcePoint" />
            <mxPoint x="1710" y="228.75" as="targetPoint" />
            <Array as="points">
              <mxPoint x="1610" y="228.75" />
            </Array>
          </mxGeometry>
        </mxCell>
        <mxCell id="G-gwL_Z2dPmAygsZRbij-94" value="" style="endArrow=none;html=1;rounded=0;entryX=0;entryY=0.5;entryDx=0;entryDy=0;exitX=1;exitY=1;exitDx=0;exitDy=0;" parent="1" source="G-gwL_Z2dPmAygsZRbij-90" edge="1" target="G-gwL_Z2dPmAygsZRbij-95">
          <mxGeometry relative="1" as="geometry">
            <mxPoint x="910" y="310" as="sourcePoint" />
            <mxPoint x="1560" y="630" as="targetPoint" />
          </mxGeometry>
        </mxCell>
        <mxCell id="G-gwL_Z2dPmAygsZRbij-95" value="&lt;span style=&quot;border-bottom: 1px dotted&quot;&gt;market_id&lt;/span&gt;" style="ellipse;whiteSpace=wrap;html=1;align=center;" parent="1" vertex="1">
          <mxGeometry x="1660" y="505" width="100" height="40" as="geometry" />
        </mxCell>
        <mxCell id="G-gwL_Z2dPmAygsZRbij-96" value="" style="endArrow=none;html=1;rounded=0;exitX=1;exitY=0.5;exitDx=0;exitDy=0;entryX=0;entryY=1;entryDx=0;entryDy=0;" parent="1" target="G-gwL_Z2dPmAygsZRbij-37" edge="1">
          <mxGeometry relative="1" as="geometry">
            <mxPoint x="760" y="79.99999999999989" as="sourcePoint" />
            <mxPoint x="1070" y="130" as="targetPoint" />
          </mxGeometry>
        </mxCell>
        <mxCell id="G-gwL_Z2dPmAygsZRbij-98" value="market_id" style="ellipse;whiteSpace=wrap;html=1;align=center;fontStyle=4;" parent="1" vertex="1">
          <mxGeometry x="660" y="70" width="100" height="40" as="geometry" />
        </mxCell>
        <mxCell id="G-gwL_Z2dPmAygsZRbij-99" value="places" style="shape=rhombus;perimeter=rhombusPerimeter;whiteSpace=wrap;html=1;align=center;" parent="1" vertex="1">
          <mxGeometry x="570" y="610" width="120" height="60" as="geometry" />
        </mxCell>
        <mxCell id="G-gwL_Z2dPmAygsZRbij-103" value="&lt;span style=&quot;border-bottom: 1px dotted&quot;&gt;book_id&lt;br&gt;&lt;/span&gt;" style="ellipse;whiteSpace=wrap;html=1;align=center;" parent="1" vertex="1">
          <mxGeometry x="1600" y="555" width="100" height="40" as="geometry" />
        </mxCell>
        <mxCell id="G-gwL_Z2dPmAygsZRbij-104" value="" style="endArrow=none;html=1;rounded=0;entryX=0;entryY=0;entryDx=0;entryDy=0;exitX=0.75;exitY=1;exitDx=0;exitDy=0;" parent="1" source="G-gwL_Z2dPmAygsZRbij-90" target="G-gwL_Z2dPmAygsZRbij-103" edge="1">
          <mxGeometry relative="1" as="geometry">
            <mxPoint x="940" y="490" as="sourcePoint" />
            <mxPoint x="1100" y="490" as="targetPoint" />
          </mxGeometry>
        </mxCell>
        <mxCell id="G-gwL_Z2dPmAygsZRbij-105" value="&lt;div&gt;&lt;span style=&quot;border-bottom: 1px dotted&quot;&gt;taker_id&lt;/span&gt;&lt;/div&gt;&lt;div&gt;&lt;span style=&quot;border-bottom: 1px dotted&quot;&gt;&lt;/span&gt;&lt;/div&gt;" style="ellipse;whiteSpace=wrap;html=1;align=center;" parent="1" vertex="1">
          <mxGeometry x="1700" y="250" width="100" height="40" as="geometry" />
        </mxCell>
        <mxCell id="G-gwL_Z2dPmAygsZRbij-106" value="&lt;span style=&quot;border-bottom: 1px dotted&quot;&gt;maker_id&lt;br&gt;&lt;/span&gt;" style="ellipse;whiteSpace=wrap;html=1;align=center;" parent="1" vertex="1">
          <mxGeometry x="1720" y="310" width="100" height="40" as="geometry" />
        </mxCell>
        <mxCell id="G-gwL_Z2dPmAygsZRbij-107" value="&lt;span style=&quot;border-bottom: 1px dotted&quot;&gt;maker_order_id&lt;br&gt;&lt;/span&gt;" style="ellipse;whiteSpace=wrap;html=1;align=center;" parent="1" vertex="1">
          <mxGeometry x="1620" y="190" width="100" height="40" as="geometry" />
        </mxCell>
        <mxCell id="G-gwL_Z2dPmAygsZRbij-108" value="" style="endArrow=none;dashed=1;html=1;rounded=0;entryX=1;entryY=1;entryDx=0;entryDy=0;exitX=0;exitY=1;exitDx=0;exitDy=0;" parent="1" target="G-gwL_Z2dPmAygsZRbij-109" edge="1">
          <mxGeometry width="50" height="50" relative="1" as="geometry">
            <mxPoint x="1514.644660940673" y="224.14213562373084" as="sourcePoint" />
            <mxPoint x="1705.355339059327" y="224.14213562373106" as="targetPoint" />
          </mxGeometry>
        </mxCell>
        <mxCell id="G-gwL_Z2dPmAygsZRbij-109" value="&lt;span style=&quot;border-bottom: 1px dotted&quot;&gt;taker_order_id&lt;br&gt;&lt;/span&gt;" style="ellipse;whiteSpace=wrap;html=1;align=center;" parent="1" vertex="1">
          <mxGeometry x="1500" y="190" width="100" height="40" as="geometry" />
        </mxCell>
        <mxCell id="G-gwL_Z2dPmAygsZRbij-112" value="&lt;span style=&quot;border-bottom: 1px dotted&quot;&gt;market_id&lt;br&gt;&lt;/span&gt;" style="ellipse;whiteSpace=wrap;html=1;align=center;" parent="1" vertex="1">
          <mxGeometry x="720" y="190" width="100" height="40" as="geometry" />
        </mxCell>
        <mxCell id="G-gwL_Z2dPmAygsZRbij-113" value="" style="endArrow=none;html=1;rounded=0;exitX=1;exitY=0.5;exitDx=0;exitDy=0;entryX=0;entryY=0.5;entryDx=0;entryDy=0;" parent="1" source="G-gwL_Z2dPmAygsZRbij-112" target="G-gwL_Z2dPmAygsZRbij-36" edge="1">
          <mxGeometry relative="1" as="geometry">
            <mxPoint x="940" y="130" as="sourcePoint" />
            <mxPoint x="1100" y="130" as="targetPoint" />
          </mxGeometry>
        </mxCell>
        <mxCell id="G-gwL_Z2dPmAygsZRbij-114" value="" style="shape=link;html=1;rounded=0;exitX=0.5;exitY=1;exitDx=0;exitDy=0;entryX=0.5;entryY=1;entryDx=0;entryDy=0;edgeStyle=orthogonalEdgeStyle;" parent="1" target="ONjoq6IzzjtHBm0ZLrr7-7" edge="1" source="G-gwL_Z2dPmAygsZRbij-189">
          <mxGeometry relative="1" as="geometry">
            <mxPoint x="1130" y="640" as="sourcePoint" />
            <mxPoint x="960.0000000000002" y="716.7200000000003" as="targetPoint" />
            <Array as="points">
              <mxPoint x="1260" y="670" />
              <mxPoint x="1260" y="1240" />
              <mxPoint x="910" y="1240" />
            </Array>
          </mxGeometry>
        </mxCell>
        <mxCell id="G-gwL_Z2dPmAygsZRbij-115" value="1" style="resizable=0;html=1;whiteSpace=wrap;align=right;verticalAlign=bottom;" parent="G-gwL_Z2dPmAygsZRbij-114" connectable="0" vertex="1">
          <mxGeometry x="1" relative="1" as="geometry" />
        </mxCell>
        <mxCell id="G-gwL_Z2dPmAygsZRbij-117" value="" style="endArrow=none;html=1;rounded=0;entryX=0.75;entryY=1;entryDx=0;entryDy=0;exitX=0.5;exitY=0;exitDx=0;exitDy=0;edgeStyle=orthogonalEdgeStyle;" parent="1" source="G-gwL_Z2dPmAygsZRbij-99" target="G-gwL_Z2dPmAygsZRbij-8" edge="1">
          <mxGeometry relative="1" as="geometry">
            <mxPoint x="450" y="390" as="sourcePoint" />
            <mxPoint x="610" y="390" as="targetPoint" />
            <Array as="points">
              <mxPoint x="630" y="190" />
              <mxPoint x="265" y="190" />
            </Array>
          </mxGeometry>
        </mxCell>
        <mxCell id="G-gwL_Z2dPmAygsZRbij-118" value="1" style="resizable=0;html=1;whiteSpace=wrap;align=right;verticalAlign=bottom;" parent="G-gwL_Z2dPmAygsZRbij-117" connectable="0" vertex="1">
          <mxGeometry x="1" relative="1" as="geometry">
            <mxPoint y="20" as="offset" />
          </mxGeometry>
        </mxCell>
        <mxCell id="G-gwL_Z2dPmAygsZRbij-119" value="" style="endArrow=none;html=1;rounded=0;entryX=0.25;entryY=0;entryDx=0;entryDy=0;exitX=1;exitY=0.5;exitDx=0;exitDy=0;edgeStyle=orthogonalEdgeStyle;" parent="1" source="G-gwL_Z2dPmAygsZRbij-99" target="G-gwL_Z2dPmAygsZRbij-133" edge="1">
          <mxGeometry relative="1" as="geometry">
            <mxPoint x="440" y="580" as="sourcePoint" />
            <mxPoint x="860.0000000000002" y="716.7200000000003" as="targetPoint" />
            <Array as="points">
              <mxPoint x="885" y="640" />
            </Array>
          </mxGeometry>
        </mxCell>
        <mxCell id="G-gwL_Z2dPmAygsZRbij-120" value="N" style="resizable=0;html=1;whiteSpace=wrap;align=right;verticalAlign=bottom;" parent="G-gwL_Z2dPmAygsZRbij-119" connectable="0" vertex="1">
          <mxGeometry x="1" relative="1" as="geometry" />
        </mxCell>
        <mxCell id="G-gwL_Z2dPmAygsZRbij-123" value="&lt;span style=&quot;border-bottom: 1px dotted&quot;&gt;owner_id&lt;/span&gt;" style="ellipse;whiteSpace=wrap;html=1;align=center;" parent="1" vertex="1">
          <mxGeometry x="310" y="280" width="100" height="40" as="geometry" />
        </mxCell>
        <mxCell id="G-gwL_Z2dPmAygsZRbij-125" value="" style="shape=link;html=1;rounded=0;entryX=1;entryY=1;entryDx=0;entryDy=0;exitX=0.5;exitY=0;exitDx=0;exitDy=0;edgeStyle=orthogonalEdgeStyle;" parent="1" source="G-gwL_Z2dPmAygsZRbij-189" target="G-gwL_Z2dPmAygsZRbij-8" edge="1">
          <mxGeometry relative="1" as="geometry">
            <mxPoint x="470" y="320" as="sourcePoint" />
            <mxPoint x="630" y="320" as="targetPoint" />
            <Array as="points">
              <mxPoint x="1260" y="610" />
              <mxPoint x="1260" y="520" />
              <mxPoint x="650" y="520" />
              <mxPoint x="650" y="160" />
              <mxPoint x="290" y="160" />
            </Array>
          </mxGeometry>
        </mxCell>
        <mxCell id="G-gwL_Z2dPmAygsZRbij-126" value="1" style="resizable=0;html=1;whiteSpace=wrap;align=right;verticalAlign=bottom;" parent="G-gwL_Z2dPmAygsZRbij-125" connectable="0" vertex="1">
          <mxGeometry x="1" relative="1" as="geometry">
            <mxPoint y="20" as="offset" />
          </mxGeometry>
        </mxCell>
        <mxCell id="G-gwL_Z2dPmAygsZRbij-130" style="rounded=0;orthogonalLoop=1;jettySize=auto;html=1;exitX=1;exitY=1;exitDx=0;exitDy=0;entryX=0;entryY=0;entryDx=0;entryDy=0;endArrow=none;endFill=0;" parent="1" source="G-gwL_Z2dPmAygsZRbij-129" target="G-gwL_Z2dPmAygsZRbij-90" edge="1">
          <mxGeometry relative="1" as="geometry" />
        </mxCell>
        <mxCell id="G-gwL_Z2dPmAygsZRbij-129" value="fill" style="ellipse;whiteSpace=wrap;html=1;align=center;" parent="1" vertex="1">
          <mxGeometry x="1260" y="250" width="100" height="40" as="geometry" />
        </mxCell>
        <mxCell id="G-gwL_Z2dPmAygsZRbij-131" value="date_placed" style="ellipse;whiteSpace=wrap;html=1;align=center;" parent="1" vertex="1">
          <mxGeometry x="1320" y="200" width="100" height="40" as="geometry" />
        </mxCell>
        <mxCell id="G-gwL_Z2dPmAygsZRbij-132" style="edgeStyle=none;rounded=0;orthogonalLoop=1;jettySize=auto;html=1;exitX=0.5;exitY=1;exitDx=0;exitDy=0;entryX=0.25;entryY=0;entryDx=0;entryDy=0;strokeColor=default;align=center;verticalAlign=middle;fontFamily=Helvetica;fontSize=11;fontColor=default;labelBackgroundColor=default;endArrow=none;endFill=0;" parent="1" source="G-gwL_Z2dPmAygsZRbij-131" target="G-gwL_Z2dPmAygsZRbij-90" edge="1">
          <mxGeometry relative="1" as="geometry" />
        </mxCell>
        <mxCell id="G-gwL_Z2dPmAygsZRbij-133" value="orders" style="rounded=1;arcSize=10;whiteSpace=wrap;html=1;align=center;" parent="1" vertex="1">
          <mxGeometry x="860" y="796.72" width="100" height="40" as="geometry" />
        </mxCell>
        <mxCell id="G-gwL_Z2dPmAygsZRbij-134" value="fill" style="ellipse;whiteSpace=wrap;html=1;align=center;" parent="1" vertex="1">
          <mxGeometry x="935" y="940" width="100" height="40" as="geometry" />
        </mxCell>
        <mxCell id="G-gwL_Z2dPmAygsZRbij-135" value="" style="endArrow=none;html=1;rounded=0;entryX=0;entryY=0;entryDx=0;entryDy=0;exitX=0.75;exitY=1;exitDx=0;exitDy=0;" parent="1" source="G-gwL_Z2dPmAygsZRbij-133" target="G-gwL_Z2dPmAygsZRbij-134" edge="1">
          <mxGeometry relative="1" as="geometry">
            <mxPoint x="910" y="856.72" as="sourcePoint" />
            <mxPoint x="1120" y="766.72" as="targetPoint" />
          </mxGeometry>
        </mxCell>
        <mxCell id="G-gwL_Z2dPmAygsZRbij-138" value="order_id" style="ellipse;whiteSpace=wrap;html=1;align=center;fontStyle=4;" parent="1" vertex="1">
          <mxGeometry x="690" y="850" width="100" height="40" as="geometry" />
        </mxCell>
        <mxCell id="G-gwL_Z2dPmAygsZRbij-139" value="" style="endArrow=none;html=1;rounded=0;entryX=1;entryY=0.5;entryDx=0;entryDy=0;exitX=0;exitY=0.5;exitDx=0;exitDy=0;" parent="1" source="G-gwL_Z2dPmAygsZRbij-133" target="G-gwL_Z2dPmAygsZRbij-138" edge="1">
          <mxGeometry relative="1" as="geometry">
            <mxPoint x="920" y="660" as="sourcePoint" />
            <mxPoint x="1080" y="660" as="targetPoint" />
          </mxGeometry>
        </mxCell>
        <mxCell id="G-gwL_Z2dPmAygsZRbij-141" value="" style="endArrow=none;html=1;rounded=0;exitX=1;exitY=0.5;exitDx=0;exitDy=0;entryX=0;entryY=1;entryDx=0;entryDy=0;" parent="1" source="G-gwL_Z2dPmAygsZRbij-142" target="G-gwL_Z2dPmAygsZRbij-133" edge="1">
          <mxGeometry relative="1" as="geometry">
            <mxPoint x="785.3553390593274" y="882.5778643762692" as="sourcePoint" />
            <mxPoint x="1080" y="650" as="targetPoint" />
          </mxGeometry>
        </mxCell>
        <mxCell id="G-gwL_Z2dPmAygsZRbij-142" value="&lt;div&gt;&lt;span style=&quot;border-bottom: 1px dotted&quot;&gt;client_id&lt;/span&gt;&lt;/div&gt;&lt;div&gt;&lt;span style=&quot;border-bottom: 1px dotted&quot;&gt;&lt;/span&gt;&lt;/div&gt;" style="ellipse;whiteSpace=wrap;html=1;align=center;" parent="1" vertex="1">
          <mxGeometry x="690" y="910" width="100" height="40" as="geometry" />
        </mxCell>
        <mxCell id="G-gwL_Z2dPmAygsZRbij-143" value="&lt;span style=&quot;border-bottom: 1px dotted&quot;&gt;book_id&lt;br&gt;&lt;/span&gt;" style="ellipse;whiteSpace=wrap;html=1;align=center;" parent="1" vertex="1">
          <mxGeometry x="785" y="940" width="100" height="40" as="geometry" />
        </mxCell>
        <mxCell id="G-gwL_Z2dPmAygsZRbij-144" value="" style="endArrow=none;html=1;rounded=0;exitX=1;exitY=0;exitDx=0;exitDy=0;entryX=0.25;entryY=1;entryDx=0;entryDy=0;" parent="1" source="G-gwL_Z2dPmAygsZRbij-143" target="G-gwL_Z2dPmAygsZRbij-133" edge="1">
          <mxGeometry relative="1" as="geometry">
            <mxPoint x="940" y="690" as="sourcePoint" />
            <mxPoint x="1100" y="690" as="targetPoint" />
          </mxGeometry>
        </mxCell>
        <mxCell id="G-gwL_Z2dPmAygsZRbij-145" value="state(new/end)" style="ellipse;shape=doubleEllipse;margin=3;whiteSpace=wrap;html=1;align=center;" parent="1" vertex="1">
          <mxGeometry x="690" y="790" width="100" height="40" as="geometry" />
        </mxCell>
        <mxCell id="G-gwL_Z2dPmAygsZRbij-146" value="price" style="ellipse;whiteSpace=wrap;html=1;align=center;dashed=1;" parent="1" vertex="1">
          <mxGeometry x="1150" y="830" width="100" height="40" as="geometry" />
        </mxCell>
        <mxCell id="G-gwL_Z2dPmAygsZRbij-148" value="&lt;span style=&quot;border-bottom: 1px dotted&quot;&gt;market_id&lt;br&gt;&lt;/span&gt;" style="ellipse;whiteSpace=wrap;html=1;align=center;" parent="1" vertex="1">
          <mxGeometry x="1005" y="890" width="100" height="40" as="geometry" />
        </mxCell>
        <mxCell id="G-gwL_Z2dPmAygsZRbij-149" value="" style="endArrow=none;html=1;rounded=0;exitX=1;exitY=0.75;exitDx=0;exitDy=0;entryX=0;entryY=0.5;entryDx=0;entryDy=0;" parent="1" source="G-gwL_Z2dPmAygsZRbij-133" target="G-gwL_Z2dPmAygsZRbij-148" edge="1">
          <mxGeometry relative="1" as="geometry">
            <mxPoint x="820" y="700" as="sourcePoint" />
            <mxPoint x="980" y="700" as="targetPoint" />
          </mxGeometry>
        </mxCell>
        <mxCell id="G-gwL_Z2dPmAygsZRbij-150" value="" style="endArrow=none;html=1;rounded=0;exitX=0;exitY=0.25;exitDx=0;exitDy=0;entryX=1;entryY=0.5;entryDx=0;entryDy=0;" parent="1" source="G-gwL_Z2dPmAygsZRbij-133" target="G-gwL_Z2dPmAygsZRbij-145" edge="1">
          <mxGeometry relative="1" as="geometry">
            <mxPoint x="820" y="700" as="sourcePoint" />
            <mxPoint x="980" y="700" as="targetPoint" />
          </mxGeometry>
        </mxCell>
        <mxCell id="G-gwL_Z2dPmAygsZRbij-151" value="&lt;div&gt;date&lt;/div&gt;" style="ellipse;whiteSpace=wrap;html=1;align=center;" parent="1" vertex="1">
          <mxGeometry x="1005" y="830" width="100" height="40" as="geometry" />
        </mxCell>
        <mxCell id="G-gwL_Z2dPmAygsZRbij-152" value="" style="endArrow=none;html=1;rounded=0;entryX=0;entryY=0.5;entryDx=0;entryDy=0;exitX=1;exitY=0.5;exitDx=0;exitDy=0;" parent="1" source="G-gwL_Z2dPmAygsZRbij-133" target="G-gwL_Z2dPmAygsZRbij-151" edge="1">
          <mxGeometry relative="1" as="geometry">
            <mxPoint x="820" y="700" as="sourcePoint" />
            <mxPoint x="980" y="700" as="targetPoint" />
          </mxGeometry>
        </mxCell>
        <mxCell id="G-gwL_Z2dPmAygsZRbij-153" value="crypto" style="ellipse;whiteSpace=wrap;html=1;align=center;" parent="1" vertex="1">
          <mxGeometry x="690" y="730" width="100" height="40" as="geometry" />
        </mxCell>
        <mxCell id="G-gwL_Z2dPmAygsZRbij-154" value="" style="endArrow=none;html=1;rounded=0;exitX=1;exitY=0.5;exitDx=0;exitDy=0;entryX=0;entryY=0;entryDx=0;entryDy=0;" parent="1" source="G-gwL_Z2dPmAygsZRbij-153" target="G-gwL_Z2dPmAygsZRbij-133" edge="1">
          <mxGeometry relative="1" as="geometry">
            <mxPoint x="820" y="750" as="sourcePoint" />
            <mxPoint x="980" y="750" as="targetPoint" />
          </mxGeometry>
        </mxCell>
        <mxCell id="G-gwL_Z2dPmAygsZRbij-155" value="fee" style="ellipse;whiteSpace=wrap;html=1;align=center;dashed=1;" parent="1" vertex="1">
          <mxGeometry x="1150" y="893.28" width="100" height="40" as="geometry" />
        </mxCell>
        <mxCell id="G-gwL_Z2dPmAygsZRbij-156" value="belongs to" style="shape=rhombus;perimeter=rhombusPerimeter;whiteSpace=wrap;html=1;align=center;fontFamily=Helvetica;fontSize=11;fontColor=default;labelBackgroundColor=default;" parent="1" vertex="1">
          <mxGeometry x="1290" y="780" width="120" height="60" as="geometry" />
        </mxCell>
        <mxCell id="G-gwL_Z2dPmAygsZRbij-161" value="" style="endArrow=none;html=1;rounded=0;strokeColor=default;align=center;verticalAlign=middle;fontFamily=Helvetica;fontSize=11;fontColor=default;labelBackgroundColor=default;entryX=1.003;entryY=0.32;entryDx=0;entryDy=0;exitX=0;exitY=0.5;exitDx=0;exitDy=0;entryPerimeter=0;" parent="1" source="G-gwL_Z2dPmAygsZRbij-156" target="G-gwL_Z2dPmAygsZRbij-133" edge="1">
          <mxGeometry relative="1" as="geometry">
            <mxPoint x="1110" y="800" as="sourcePoint" />
            <mxPoint x="1270" y="800" as="targetPoint" />
          </mxGeometry>
        </mxCell>
        <mxCell id="G-gwL_Z2dPmAygsZRbij-162" value="N" style="resizable=0;html=1;whiteSpace=wrap;align=right;verticalAlign=bottom;fontFamily=Helvetica;fontSize=11;fontColor=default;labelBackgroundColor=default;" parent="G-gwL_Z2dPmAygsZRbij-161" connectable="0" vertex="1">
          <mxGeometry x="1" relative="1" as="geometry">
            <mxPoint x="30" as="offset" />
          </mxGeometry>
        </mxCell>
        <mxCell id="G-gwL_Z2dPmAygsZRbij-164" value="" style="endArrow=none;html=1;rounded=0;strokeColor=default;align=center;verticalAlign=middle;fontFamily=Helvetica;fontSize=11;fontColor=default;labelBackgroundColor=default;exitX=1;exitY=0.5;exitDx=0;exitDy=0;entryX=1;entryY=0.25;entryDx=0;entryDy=0;edgeStyle=orthogonalEdgeStyle;" parent="1" source="G-gwL_Z2dPmAygsZRbij-156" target="G-gwL_Z2dPmAygsZRbij-37" edge="1">
          <mxGeometry relative="1" as="geometry">
            <mxPoint x="1380" y="900" as="sourcePoint" />
            <mxPoint x="1540" y="900" as="targetPoint" />
            <Array as="points">
              <mxPoint x="1890" y="810" />
              <mxPoint x="1890" />
            </Array>
          </mxGeometry>
        </mxCell>
        <mxCell id="G-gwL_Z2dPmAygsZRbij-165" value="1" style="resizable=0;html=1;whiteSpace=wrap;align=right;verticalAlign=bottom;fontFamily=Helvetica;fontSize=11;fontColor=default;labelBackgroundColor=default;" parent="G-gwL_Z2dPmAygsZRbij-164" connectable="0" vertex="1">
          <mxGeometry x="1" relative="1" as="geometry">
            <mxPoint x="10" as="offset" />
          </mxGeometry>
        </mxCell>
        <mxCell id="G-gwL_Z2dPmAygsZRbij-166" value="1" style="resizable=0;html=1;whiteSpace=wrap;align=right;verticalAlign=bottom;fontFamily=Helvetica;fontSize=11;fontColor=default;labelBackgroundColor=default;" parent="1" connectable="0" vertex="1">
          <mxGeometry x="980.0869565217395" y="10" as="geometry">
            <mxPoint x="-7" y="18" as="offset" />
          </mxGeometry>
        </mxCell>
        <mxCell id="G-gwL_Z2dPmAygsZRbij-168" value="transactions" style="rounded=1;arcSize=10;whiteSpace=wrap;html=1;align=center;" parent="1" vertex="1">
          <mxGeometry x="190" y="793.28" width="100" height="40" as="geometry" />
        </mxCell>
        <mxCell id="G-gwL_Z2dPmAygsZRbij-169" value="fill" style="ellipse;whiteSpace=wrap;html=1;align=center;" parent="1" vertex="1">
          <mxGeometry x="440" y="913.28" width="100" height="40" as="geometry" />
        </mxCell>
        <mxCell id="G-gwL_Z2dPmAygsZRbij-170" value="fee" style="ellipse;whiteSpace=wrap;html=1;align=center;" parent="1" vertex="1">
          <mxGeometry x="440" y="830" width="100" height="40" as="geometry" />
        </mxCell>
        <mxCell id="G-gwL_Z2dPmAygsZRbij-171" value="date" style="ellipse;whiteSpace=wrap;html=1;align=center;" parent="1" vertex="1">
          <mxGeometry x="440" y="770" width="100" height="40" as="geometry" />
        </mxCell>
        <mxCell id="G-gwL_Z2dPmAygsZRbij-172" value="trans_id" style="ellipse;whiteSpace=wrap;html=1;align=center;fontStyle=4;" parent="1" vertex="1">
          <mxGeometry x="-70" y="930" width="100" height="40" as="geometry" />
        </mxCell>
        <mxCell id="G-gwL_Z2dPmAygsZRbij-173" value="cryptotype" style="ellipse;shape=doubleEllipse;margin=3;whiteSpace=wrap;html=1;align=center;" parent="1" vertex="1">
          <mxGeometry x="70" y="930" width="100" height="40" as="geometry" />
        </mxCell>
        <mxCell id="G-gwL_Z2dPmAygsZRbij-174" value="&lt;span style=&quot;border-bottom: 1px dotted&quot;&gt;origin_wallet_id&lt;br&gt;&lt;/span&gt;" style="ellipse;whiteSpace=wrap;html=1;align=center;" parent="1" vertex="1">
          <mxGeometry x="190" y="933.28" width="100" height="40" as="geometry" />
        </mxCell>
        <mxCell id="G-gwL_Z2dPmAygsZRbij-175" value="&lt;span style=&quot;border-bottom: 1px dotted&quot;&gt;dest_wallet_id&lt;br&gt;&lt;/span&gt;" style="ellipse;whiteSpace=wrap;html=1;align=center;" parent="1" vertex="1">
          <mxGeometry x="310" y="933.28" width="100" height="40" as="geometry" />
        </mxCell>
        <mxCell id="G-gwL_Z2dPmAygsZRbij-176" value="" style="endArrow=none;html=1;rounded=0;exitX=0.5;exitY=0;exitDx=0;exitDy=0;entryX=0.25;entryY=1;entryDx=0;entryDy=0;" parent="1" source="G-gwL_Z2dPmAygsZRbij-173" target="G-gwL_Z2dPmAygsZRbij-168" edge="1">
          <mxGeometry relative="1" as="geometry">
            <mxPoint x="140" y="803.28" as="sourcePoint" />
            <mxPoint x="300" y="803.28" as="targetPoint" />
          </mxGeometry>
        </mxCell>
        <mxCell id="G-gwL_Z2dPmAygsZRbij-177" value="" style="endArrow=none;html=1;rounded=0;exitX=0.5;exitY=0;exitDx=0;exitDy=0;entryX=0.5;entryY=1;entryDx=0;entryDy=0;" parent="1" source="G-gwL_Z2dPmAygsZRbij-174" target="G-gwL_Z2dPmAygsZRbij-168" edge="1">
          <mxGeometry relative="1" as="geometry">
            <mxPoint x="140" y="803.28" as="sourcePoint" />
            <mxPoint x="300" y="803.28" as="targetPoint" />
          </mxGeometry>
        </mxCell>
        <mxCell id="G-gwL_Z2dPmAygsZRbij-178" value="" style="endArrow=none;html=1;rounded=0;exitX=0.75;exitY=1;exitDx=0;exitDy=0;entryX=0.5;entryY=0;entryDx=0;entryDy=0;" parent="1" source="G-gwL_Z2dPmAygsZRbij-168" target="G-gwL_Z2dPmAygsZRbij-175" edge="1">
          <mxGeometry relative="1" as="geometry">
            <mxPoint x="140" y="803.28" as="sourcePoint" />
            <mxPoint x="300" y="803.28" as="targetPoint" />
          </mxGeometry>
        </mxCell>
        <mxCell id="G-gwL_Z2dPmAygsZRbij-179" value="" style="endArrow=none;html=1;rounded=0;exitX=1;exitY=0.75;exitDx=0;exitDy=0;entryX=0;entryY=0;entryDx=0;entryDy=0;" parent="1" source="G-gwL_Z2dPmAygsZRbij-168" target="G-gwL_Z2dPmAygsZRbij-169" edge="1">
          <mxGeometry relative="1" as="geometry">
            <mxPoint x="140" y="803.28" as="sourcePoint" />
            <mxPoint x="300" y="803.28" as="targetPoint" />
          </mxGeometry>
        </mxCell>
        <mxCell id="G-gwL_Z2dPmAygsZRbij-180" value="" style="endArrow=none;html=1;rounded=0;exitX=1;exitY=0.5;exitDx=0;exitDy=0;entryX=0;entryY=0.5;entryDx=0;entryDy=0;" parent="1" source="G-gwL_Z2dPmAygsZRbij-168" target="G-gwL_Z2dPmAygsZRbij-170" edge="1">
          <mxGeometry relative="1" as="geometry">
            <mxPoint x="370" y="803.28" as="sourcePoint" />
            <mxPoint x="530" y="803.28" as="targetPoint" />
          </mxGeometry>
        </mxCell>
        <mxCell id="G-gwL_Z2dPmAygsZRbij-181" value="" style="endArrow=none;html=1;rounded=0;exitX=1;exitY=0.5;exitDx=0;exitDy=0;entryX=0;entryY=0.5;entryDx=0;entryDy=0;" parent="1" source="G-gwL_Z2dPmAygsZRbij-168" target="G-gwL_Z2dPmAygsZRbij-171" edge="1">
          <mxGeometry relative="1" as="geometry">
            <mxPoint x="370" y="803.28" as="sourcePoint" />
            <mxPoint x="530" y="803.28" as="targetPoint" />
          </mxGeometry>
        </mxCell>
        <mxCell id="G-gwL_Z2dPmAygsZRbij-182" value="" style="endArrow=none;html=1;rounded=0;exitX=0;exitY=1;exitDx=0;exitDy=0;entryX=1;entryY=0;entryDx=0;entryDy=0;" parent="1" source="G-gwL_Z2dPmAygsZRbij-168" target="G-gwL_Z2dPmAygsZRbij-172" edge="1">
          <mxGeometry relative="1" as="geometry">
            <mxPoint x="230" y="803.28" as="sourcePoint" />
            <mxPoint x="120" y="813.28" as="targetPoint" />
          </mxGeometry>
        </mxCell>
        <mxCell id="G-gwL_Z2dPmAygsZRbij-183" value="" style="shape=link;html=1;rounded=0;strokeColor=default;align=center;verticalAlign=middle;fontFamily=Helvetica;fontSize=11;fontColor=default;labelBackgroundColor=default;endArrow=none;endFill=0;entryX=0.5;entryY=1;entryDx=0;entryDy=0;exitX=0.5;exitY=0;exitDx=0;exitDy=0;" parent="1" source="G-gwL_Z2dPmAygsZRbij-185" target="G-gwL_Z2dPmAygsZRbij-21" edge="1">
          <mxGeometry relative="1" as="geometry">
            <mxPoint x="240" y="620" as="sourcePoint" />
            <mxPoint x="350" y="570" as="targetPoint" />
          </mxGeometry>
        </mxCell>
        <mxCell id="G-gwL_Z2dPmAygsZRbij-184" value="1" style="resizable=0;html=1;whiteSpace=wrap;align=right;verticalAlign=bottom;fontFamily=Helvetica;fontSize=11;fontColor=default;labelBackgroundColor=default;" parent="G-gwL_Z2dPmAygsZRbij-183" connectable="0" vertex="1">
          <mxGeometry x="1" relative="1" as="geometry">
            <mxPoint x="-10" y="20" as="offset" />
          </mxGeometry>
        </mxCell>
        <mxCell id="G-gwL_Z2dPmAygsZRbij-185" value="happend on" style="shape=rhombus;perimeter=rhombusPerimeter;whiteSpace=wrap;html=1;align=center;fontFamily=Helvetica;fontSize=11;fontColor=default;labelBackgroundColor=default;" parent="1" vertex="1">
          <mxGeometry x="180" y="600" width="120" height="60" as="geometry" />
        </mxCell>
        <mxCell id="G-gwL_Z2dPmAygsZRbij-186" value="" style="endArrow=none;html=1;rounded=0;strokeColor=default;align=center;verticalAlign=middle;fontFamily=Helvetica;fontSize=11;fontColor=default;labelBackgroundColor=default;exitX=0.5;exitY=1;exitDx=0;exitDy=0;edgeStyle=orthogonalEdgeStyle;" parent="1" source="G-gwL_Z2dPmAygsZRbij-185" target="G-gwL_Z2dPmAygsZRbij-168" edge="1">
          <mxGeometry relative="1" as="geometry">
            <mxPoint x="60" y="770" as="sourcePoint" />
            <mxPoint x="220" y="770" as="targetPoint" />
          </mxGeometry>
        </mxCell>
        <mxCell id="G-gwL_Z2dPmAygsZRbij-187" value="N" style="resizable=0;html=1;whiteSpace=wrap;align=right;verticalAlign=bottom;fontFamily=Helvetica;fontSize=11;fontColor=default;labelBackgroundColor=default;" parent="G-gwL_Z2dPmAygsZRbij-186" connectable="0" vertex="1">
          <mxGeometry x="1" relative="1" as="geometry" />
        </mxCell>
        <mxCell id="G-gwL_Z2dPmAygsZRbij-188" value="change market price" style="shape=rhombus;double=1;perimeter=rhombusPerimeter;whiteSpace=wrap;html=1;align=center;fontFamily=Helvetica;fontSize=11;fontColor=default;labelBackgroundColor=default;" parent="1" vertex="1">
          <mxGeometry x="1220" y="130" width="150" height="60" as="geometry" />
        </mxCell>
        <mxCell id="ONjoq6IzzjtHBm0ZLrr7-2" value="" style="triangle;whiteSpace=wrap;html=1;direction=south;" vertex="1" parent="1">
          <mxGeometry x="885" y="1000" width="50" height="30" as="geometry" />
        </mxCell>
        <mxCell id="ONjoq6IzzjtHBm0ZLrr7-3" value="purchaseorders" style="rounded=1;arcSize=10;whiteSpace=wrap;html=1;align=center;" vertex="1" parent="1">
          <mxGeometry x="1030" y="1120" width="100" height="40" as="geometry" />
        </mxCell>
        <mxCell id="ONjoq6IzzjtHBm0ZLrr7-4" value="saleorders" style="rounded=1;arcSize=10;whiteSpace=wrap;html=1;align=center;" vertex="1" parent="1">
          <mxGeometry x="690" y="1120" width="100" height="40" as="geometry" />
        </mxCell>
        <mxCell id="ONjoq6IzzjtHBm0ZLrr7-5" value="" style="endArrow=none;html=1;rounded=0;exitX=0.5;exitY=0;exitDx=0;exitDy=0;entryX=0.5;entryY=0;entryDx=0;entryDy=0;" edge="1" source="ONjoq6IzzjtHBm0ZLrr7-2" target="ONjoq6IzzjtHBm0ZLrr7-3" parent="1">
          <mxGeometry relative="1" as="geometry">
            <mxPoint x="830" y="990" as="sourcePoint" />
            <mxPoint x="990" y="990" as="targetPoint" />
          </mxGeometry>
        </mxCell>
        <mxCell id="ONjoq6IzzjtHBm0ZLrr7-6" value="" style="endArrow=none;html=1;rounded=0;exitX=0.5;exitY=0;exitDx=0;exitDy=0;" edge="1" source="ONjoq6IzzjtHBm0ZLrr7-4" target="ONjoq6IzzjtHBm0ZLrr7-2" parent="1">
          <mxGeometry relative="1" as="geometry">
            <mxPoint x="830" y="990" as="sourcePoint" />
            <mxPoint x="990" y="990" as="targetPoint" />
          </mxGeometry>
        </mxCell>
        <mxCell id="ONjoq6IzzjtHBm0ZLrr7-7" value="deal with" style="shape=rhombus;perimeter=rhombusPerimeter;whiteSpace=wrap;html=1;align=center;" vertex="1" parent="1">
          <mxGeometry x="865" y="1110" width="90" height="60" as="geometry" />
        </mxCell>
        <mxCell id="ONjoq6IzzjtHBm0ZLrr7-8" value="" style="endArrow=none;html=1;rounded=0;exitX=1;exitY=0.5;exitDx=0;exitDy=0;entryX=0;entryY=0.5;entryDx=0;entryDy=0;" edge="1" source="ONjoq6IzzjtHBm0ZLrr7-4" target="ONjoq6IzzjtHBm0ZLrr7-7" parent="1">
          <mxGeometry relative="1" as="geometry">
            <mxPoint x="870" y="1140" as="sourcePoint" />
            <mxPoint x="1030" y="1140" as="targetPoint" />
          </mxGeometry>
        </mxCell>
        <mxCell id="ONjoq6IzzjtHBm0ZLrr7-9" value="" style="endArrow=none;html=1;rounded=0;exitX=1;exitY=0.5;exitDx=0;exitDy=0;entryX=0;entryY=0.5;entryDx=0;entryDy=0;" edge="1" source="ONjoq6IzzjtHBm0ZLrr7-7" target="ONjoq6IzzjtHBm0ZLrr7-3" parent="1">
          <mxGeometry relative="1" as="geometry">
            <mxPoint x="870" y="1140" as="sourcePoint" />
            <mxPoint x="1030" y="1140" as="targetPoint" />
          </mxGeometry>
        </mxCell>
        <mxCell id="ONjoq6IzzjtHBm0ZLrr7-10" value="" style="endArrow=none;html=1;rounded=0;exitX=0;exitY=0.5;exitDx=0;exitDy=0;entryX=0.5;entryY=1;entryDx=0;entryDy=0;" edge="1" parent="1" source="ONjoq6IzzjtHBm0ZLrr7-2" target="G-gwL_Z2dPmAygsZRbij-133">
          <mxGeometry relative="1" as="geometry">
            <mxPoint x="960" y="960" as="sourcePoint" />
            <mxPoint x="1120" y="960" as="targetPoint" />
          </mxGeometry>
        </mxCell>
        <mxCell id="ONjoq6IzzjtHBm0ZLrr7-13" value="" style="triangle;whiteSpace=wrap;html=1;direction=south;" vertex="1" parent="1">
          <mxGeometry x="1505" y="590" width="50" height="30" as="geometry" />
        </mxCell>
        <mxCell id="ONjoq6IzzjtHBm0ZLrr7-14" value="p2p" style="rounded=1;arcSize=10;whiteSpace=wrap;html=1;align=center;" vertex="1" parent="1">
          <mxGeometry x="1550" y="660" width="100" height="40" as="geometry" />
        </mxCell>
        <mxCell id="ONjoq6IzzjtHBm0ZLrr7-15" value="otc" style="rounded=1;arcSize=10;whiteSpace=wrap;html=1;align=center;" vertex="1" parent="1">
          <mxGeometry x="1410" y="660" width="100" height="40" as="geometry" />
        </mxCell>
        <mxCell id="ONjoq6IzzjtHBm0ZLrr7-16" value="" style="endArrow=none;html=1;rounded=0;exitX=0.5;exitY=0;exitDx=0;exitDy=0;entryX=0.5;entryY=0;entryDx=0;entryDy=0;" edge="1" parent="1" source="ONjoq6IzzjtHBm0ZLrr7-13" target="ONjoq6IzzjtHBm0ZLrr7-14">
          <mxGeometry relative="1" as="geometry">
            <mxPoint x="1450" y="580" as="sourcePoint" />
            <mxPoint x="1610" y="580" as="targetPoint" />
          </mxGeometry>
        </mxCell>
        <mxCell id="ONjoq6IzzjtHBm0ZLrr7-17" value="" style="endArrow=none;html=1;rounded=0;exitX=0.5;exitY=0;exitDx=0;exitDy=0;entryX=0.5;entryY=1;entryDx=0;entryDy=0;" edge="1" parent="1" source="ONjoq6IzzjtHBm0ZLrr7-15" target="ONjoq6IzzjtHBm0ZLrr7-13">
          <mxGeometry relative="1" as="geometry">
            <mxPoint x="1450" y="580" as="sourcePoint" />
            <mxPoint x="1610" y="580" as="targetPoint" />
          </mxGeometry>
        </mxCell>
        <mxCell id="ONjoq6IzzjtHBm0ZLrr7-21" value="" style="endArrow=none;html=1;rounded=0;exitX=0.5;exitY=1;exitDx=0;exitDy=0;entryX=0;entryY=0.5;entryDx=0;entryDy=0;" edge="1" parent="1" source="G-gwL_Z2dPmAygsZRbij-90" target="ONjoq6IzzjtHBm0ZLrr7-13">
          <mxGeometry relative="1" as="geometry">
            <mxPoint x="1240" y="600" as="sourcePoint" />
            <mxPoint x="1400" y="600" as="targetPoint" />
            <Array as="points">
              <mxPoint x="1450" y="510" />
              <mxPoint x="1530" y="510" />
            </Array>
          </mxGeometry>
        </mxCell>
        <mxCell id="ONjoq6IzzjtHBm0ZLrr7-22" value="fee" style="ellipse;whiteSpace=wrap;html=1;align=center;" vertex="1" parent="1">
          <mxGeometry x="660" y="-90" width="100" height="40" as="geometry" />
        </mxCell>
        <mxCell id="ONjoq6IzzjtHBm0ZLrr7-23" value="" style="endArrow=none;html=1;rounded=0;exitX=1;exitY=0.5;exitDx=0;exitDy=0;entryX=0;entryY=0;entryDx=0;entryDy=0;" edge="1" parent="1" source="ONjoq6IzzjtHBm0ZLrr7-22" target="G-gwL_Z2dPmAygsZRbij-37">
          <mxGeometry relative="1" as="geometry">
            <mxPoint x="1090" y="90" as="sourcePoint" />
            <mxPoint x="1250" y="90" as="targetPoint" />
          </mxGeometry>
        </mxCell>
        <mxCell id="ONjoq6IzzjtHBm0ZLrr7-24" value="" style="endArrow=none;html=1;rounded=0;entryX=0.25;entryY=1;entryDx=0;entryDy=0;exitX=1;exitY=0.5;exitDx=0;exitDy=0;" edge="1" parent="1" target="G-gwL_Z2dPmAygsZRbij-189">
          <mxGeometry relative="1" as="geometry">
            <mxPoint x="1250" y="640" as="sourcePoint" />
            <mxPoint x="1425" y="430" as="targetPoint" />
            <Array as="points" />
          </mxGeometry>
        </mxCell>
        <mxCell id="G-gwL_Z2dPmAygsZRbij-189" value="&lt;div&gt;happens between&lt;/div&gt;" style="shape=rhombus;double=1;perimeter=rhombusPerimeter;whiteSpace=wrap;html=1;align=center;fontFamily=Helvetica;fontSize=11;fontColor=default;labelBackgroundColor=default;" parent="1" vertex="1">
          <mxGeometry x="1200" y="610" width="120" height="60" as="geometry" />
        </mxCell>
        <mxCell id="ONjoq6IzzjtHBm0ZLrr7-25" value="" style="endArrow=none;html=1;rounded=0;exitX=1;exitY=0;exitDx=0;exitDy=0;entryX=0;entryY=0.5;entryDx=0;entryDy=0;" edge="1" parent="1" source="G-gwL_Z2dPmAygsZRbij-148" target="G-gwL_Z2dPmAygsZRbij-146">
          <mxGeometry relative="1" as="geometry">
            <mxPoint x="1090" y="770" as="sourcePoint" />
            <mxPoint x="1250" y="770" as="targetPoint" />
          </mxGeometry>
        </mxCell>
        <mxCell id="ONjoq6IzzjtHBm0ZLrr7-26" value="" style="endArrow=none;html=1;rounded=0;exitX=1;exitY=0.5;exitDx=0;exitDy=0;entryX=0;entryY=0.5;entryDx=0;entryDy=0;" edge="1" parent="1" source="G-gwL_Z2dPmAygsZRbij-151" target="G-gwL_Z2dPmAygsZRbij-146">
          <mxGeometry relative="1" as="geometry">
            <mxPoint x="1100" y="780" as="sourcePoint" />
            <mxPoint x="1250" y="770" as="targetPoint" />
          </mxGeometry>
        </mxCell>
        <mxCell id="ONjoq6IzzjtHBm0ZLrr7-27" value="" style="endArrow=none;html=1;rounded=0;exitX=1;exitY=1;exitDx=0;exitDy=0;entryX=0;entryY=0.5;entryDx=0;entryDy=0;" edge="1" parent="1" source="G-gwL_Z2dPmAygsZRbij-151" target="G-gwL_Z2dPmAygsZRbij-155">
          <mxGeometry relative="1" as="geometry">
            <mxPoint x="1090" y="770" as="sourcePoint" />
            <mxPoint x="1250" y="770" as="targetPoint" />
          </mxGeometry>
        </mxCell>
        <mxCell id="ONjoq6IzzjtHBm0ZLrr7-28" value="" style="endArrow=none;html=1;rounded=0;exitX=1;exitY=0.5;exitDx=0;exitDy=0;entryX=0;entryY=0.5;entryDx=0;entryDy=0;" edge="1" parent="1" source="G-gwL_Z2dPmAygsZRbij-148" target="G-gwL_Z2dPmAygsZRbij-155">
          <mxGeometry relative="1" as="geometry">
            <mxPoint x="1090" y="770" as="sourcePoint" />
            <mxPoint x="1250" y="770" as="targetPoint" />
          </mxGeometry>
        </mxCell>
        <mxCell id="ONjoq6IzzjtHBm0ZLrr7-29" value="brokers" style="rounded=1;arcSize=10;whiteSpace=wrap;html=1;align=center;" vertex="1" parent="1">
          <mxGeometry x="1170" y="-200" width="100" height="40" as="geometry" />
        </mxCell>
        <mxCell id="ONjoq6IzzjtHBm0ZLrr7-32" value="contains" style="shape=rhombus;perimeter=rhombusPerimeter;whiteSpace=wrap;html=1;align=center;" vertex="1" parent="1">
          <mxGeometry x="850" y="-140" width="120" height="60" as="geometry" />
        </mxCell>
        <mxCell id="ONjoq6IzzjtHBm0ZLrr7-35" value="" style="endArrow=none;html=1;rounded=0;exitX=0.5;exitY=1;exitDx=0;exitDy=0;entryX=0.5;entryY=0;entryDx=0;entryDy=0;" edge="1" parent="1" source="ONjoq6IzzjtHBm0ZLrr7-32" target="G-gwL_Z2dPmAygsZRbij-37">
          <mxGeometry relative="1" as="geometry">
            <mxPoint x="1550" y="50" as="sourcePoint" />
            <mxPoint x="1710" y="50" as="targetPoint" />
          </mxGeometry>
        </mxCell>
        <mxCell id="ONjoq6IzzjtHBm0ZLrr7-36" value="N" style="resizable=0;html=1;whiteSpace=wrap;align=right;verticalAlign=bottom;" connectable="0" vertex="1" parent="ONjoq6IzzjtHBm0ZLrr7-35">
          <mxGeometry x="1" relative="1" as="geometry" />
        </mxCell>
        <mxCell id="ONjoq6IzzjtHBm0ZLrr7-37" value="" style="endArrow=none;html=1;rounded=0;exitX=1;exitY=0.5;exitDx=0;exitDy=0;entryX=0.25;entryY=1;entryDx=0;entryDy=0;" edge="1" parent="1" source="ONjoq6IzzjtHBm0ZLrr7-32" target="ONjoq6IzzjtHBm0ZLrr7-29">
          <mxGeometry relative="1" as="geometry">
            <mxPoint x="1550" y="50" as="sourcePoint" />
            <mxPoint x="1710" y="50" as="targetPoint" />
            <Array as="points">
              <mxPoint x="1195" y="-110" />
            </Array>
          </mxGeometry>
        </mxCell>
        <mxCell id="ONjoq6IzzjtHBm0ZLrr7-38" value="1" style="resizable=0;html=1;whiteSpace=wrap;align=right;verticalAlign=bottom;" connectable="0" vertex="1" parent="ONjoq6IzzjtHBm0ZLrr7-37">
          <mxGeometry x="1" relative="1" as="geometry">
            <mxPoint y="20" as="offset" />
          </mxGeometry>
        </mxCell>
        <mxCell id="ONjoq6IzzjtHBm0ZLrr7-39" value="cryptotype" style="ellipse;shape=doubleEllipse;margin=3;whiteSpace=wrap;html=1;align=center;" vertex="1" parent="1">
          <mxGeometry x="1030" y="70" width="100" height="40" as="geometry" />
        </mxCell>
        <mxCell id="ONjoq6IzzjtHBm0ZLrr7-40" value="" style="endArrow=none;html=1;rounded=0;exitX=1;exitY=1;exitDx=0;exitDy=0;entryX=0;entryY=0;entryDx=0;entryDy=0;" edge="1" parent="1" source="G-gwL_Z2dPmAygsZRbij-37" target="ONjoq6IzzjtHBm0ZLrr7-39">
          <mxGeometry width="50" height="50" relative="1" as="geometry">
            <mxPoint x="830" y="40" as="sourcePoint" />
            <mxPoint x="880" y="-10" as="targetPoint" />
          </mxGeometry>
        </mxCell>
        <mxCell id="ONjoq6IzzjtHBm0ZLrr7-43" value="&lt;span style=&quot;border-bottom: 1px dotted&quot;&gt;wallet_id&lt;br&gt;&lt;/span&gt;" style="ellipse;whiteSpace=wrap;html=1;align=center;" vertex="1" parent="1">
          <mxGeometry x="-260" y="505" width="100" height="40" as="geometry" />
        </mxCell>
        <mxCell id="ONjoq6IzzjtHBm0ZLrr7-45" value="cryptotype" style="ellipse;shape=doubleEllipse;margin=3;whiteSpace=wrap;html=1;align=center;" vertex="1" parent="1">
          <mxGeometry x="-260" y="575" width="100" height="40" as="geometry" />
        </mxCell>
        <mxCell id="ONjoq6IzzjtHBm0ZLrr7-46" value="value" style="ellipse;whiteSpace=wrap;html=1;align=center;dashed=1;" vertex="1" parent="1">
          <mxGeometry x="-260" y="650" width="100" height="40" as="geometry" />
        </mxCell>
        <mxCell id="ONjoq6IzzjtHBm0ZLrr7-48" value="" style="endArrow=none;html=1;rounded=0;entryX=0;entryY=0;entryDx=0;entryDy=0;exitX=1;exitY=0.5;exitDx=0;exitDy=0;" edge="1" parent="1" source="ONjoq6IzzjtHBm0ZLrr7-43" target="ONjoq6IzzjtHBm0ZLrr7-50">
          <mxGeometry width="50" height="50" relative="1" as="geometry">
            <mxPoint x="-70" y="685" as="sourcePoint" />
            <mxPoint x="-90" y="595" as="targetPoint" />
          </mxGeometry>
        </mxCell>
        <mxCell id="ONjoq6IzzjtHBm0ZLrr7-49" value="" style="endArrow=none;html=1;rounded=0;exitX=1;exitY=0.5;exitDx=0;exitDy=0;entryX=0;entryY=0.5;entryDx=0;entryDy=0;" edge="1" parent="1" source="ONjoq6IzzjtHBm0ZLrr7-45" target="ONjoq6IzzjtHBm0ZLrr7-50">
          <mxGeometry width="50" height="50" relative="1" as="geometry">
            <mxPoint x="-60" y="695" as="sourcePoint" />
            <mxPoint x="-65" y="615" as="targetPoint" />
          </mxGeometry>
        </mxCell>
        <mxCell id="ONjoq6IzzjtHBm0ZLrr7-50" value="WalletITems" style="shape=ext;margin=3;double=1;whiteSpace=wrap;html=1;align=center;" vertex="1" parent="1">
          <mxGeometry x="-90" y="575" width="100" height="40" as="geometry" />
        </mxCell>
        <mxCell id="ONjoq6IzzjtHBm0ZLrr7-52" value="" style="endArrow=none;html=1;rounded=0;entryX=0;entryY=1;entryDx=0;entryDy=0;exitX=1;exitY=0.5;exitDx=0;exitDy=0;" edge="1" parent="1" source="ONjoq6IzzjtHBm0ZLrr7-46" target="ONjoq6IzzjtHBm0ZLrr7-50">
          <mxGeometry width="50" height="50" relative="1" as="geometry">
            <mxPoint x="-30" y="705" as="sourcePoint" />
            <mxPoint x="-10" y="645" as="targetPoint" />
          </mxGeometry>
        </mxCell>
        <mxCell id="ONjoq6IzzjtHBm0ZLrr7-54" value="stores" style="shape=rhombus;double=1;perimeter=rhombusPerimeter;whiteSpace=wrap;html=1;align=center;" vertex="1" parent="1">
          <mxGeometry x="-100" y="350" width="120" height="60" as="geometry" />
        </mxCell>
        <mxCell id="ONjoq6IzzjtHBm0ZLrr7-55" value="based" style="shape=rhombus;double=1;perimeter=rhombusPerimeter;whiteSpace=wrap;html=1;align=center;" vertex="1" parent="1">
          <mxGeometry x="-100" y="786.72" width="120" height="53.28" as="geometry" />
        </mxCell>
        <mxCell id="ONjoq6IzzjtHBm0ZLrr7-57" value="" style="endArrow=none;html=1;rounded=0;exitX=1;exitY=0.5;exitDx=0;exitDy=0;entryX=0;entryY=0.5;entryDx=0;entryDy=0;" edge="1" parent="1" source="ONjoq6IzzjtHBm0ZLrr7-55" target="G-gwL_Z2dPmAygsZRbij-168">
          <mxGeometry relative="1" as="geometry">
            <mxPoint x="30" y="778.46" as="sourcePoint" />
            <mxPoint x="190" y="778.46" as="targetPoint" />
          </mxGeometry>
        </mxCell>
        <mxCell id="ONjoq6IzzjtHBm0ZLrr7-58" value="N" style="resizable=0;html=1;whiteSpace=wrap;align=right;verticalAlign=bottom;" connectable="0" vertex="1" parent="ONjoq6IzzjtHBm0ZLrr7-57">
          <mxGeometry x="1" relative="1" as="geometry" />
        </mxCell>
        <mxCell id="ONjoq6IzzjtHBm0ZLrr7-59" value="" style="endArrow=none;html=1;rounded=0;exitX=0.5;exitY=0;exitDx=0;exitDy=0;entryX=0.5;entryY=1;entryDx=0;entryDy=0;" edge="1" parent="1" source="ONjoq6IzzjtHBm0ZLrr7-55" target="ONjoq6IzzjtHBm0ZLrr7-50">
          <mxGeometry relative="1" as="geometry">
            <mxPoint x="560" y="750" as="sourcePoint" />
            <mxPoint x="720" y="750" as="targetPoint" />
          </mxGeometry>
        </mxCell>
        <mxCell id="ONjoq6IzzjtHBm0ZLrr7-60" value="N" style="resizable=0;html=1;whiteSpace=wrap;align=right;verticalAlign=bottom;" connectable="0" vertex="1" parent="ONjoq6IzzjtHBm0ZLrr7-59">
          <mxGeometry x="1" relative="1" as="geometry">
            <mxPoint x="-10" y="16" as="offset" />
          </mxGeometry>
        </mxCell>
        <mxCell id="ONjoq6IzzjtHBm0ZLrr7-62" value="" style="endArrow=none;html=1;rounded=0;exitX=0.5;exitY=1;exitDx=0;exitDy=0;entryX=0.5;entryY=0;entryDx=0;entryDy=0;" edge="1" parent="1" source="ONjoq6IzzjtHBm0ZLrr7-54" target="ONjoq6IzzjtHBm0ZLrr7-50">
          <mxGeometry relative="1" as="geometry">
            <mxPoint x="560" y="640" as="sourcePoint" />
            <mxPoint x="720" y="640" as="targetPoint" />
          </mxGeometry>
        </mxCell>
        <mxCell id="ONjoq6IzzjtHBm0ZLrr7-63" value="N" style="resizable=0;html=1;whiteSpace=wrap;align=right;verticalAlign=bottom;" connectable="0" vertex="1" parent="ONjoq6IzzjtHBm0ZLrr7-62">
          <mxGeometry x="1" relative="1" as="geometry" />
        </mxCell>
        <mxCell id="ONjoq6IzzjtHBm0ZLrr7-65" value="" style="endArrow=none;html=1;rounded=0;exitX=1;exitY=0.5;exitDx=0;exitDy=0;entryX=0;entryY=0.5;entryDx=0;entryDy=0;" edge="1" parent="1" source="ONjoq6IzzjtHBm0ZLrr7-54" target="G-gwL_Z2dPmAygsZRbij-21">
          <mxGeometry relative="1" as="geometry">
            <mxPoint x="560" y="640" as="sourcePoint" />
            <mxPoint x="720" y="640" as="targetPoint" />
          </mxGeometry>
        </mxCell>
        <mxCell id="ONjoq6IzzjtHBm0ZLrr7-66" value="1" style="resizable=0;html=1;whiteSpace=wrap;align=right;verticalAlign=bottom;" connectable="0" vertex="1" parent="ONjoq6IzzjtHBm0ZLrr7-65">
          <mxGeometry x="1" relative="1" as="geometry" />
        </mxCell>
        <mxCell id="ONjoq6IzzjtHBm0ZLrr7-68" value="&lt;span style=&quot;border-bottom: 1px dotted&quot;&gt;trans_id&lt;br&gt;&lt;/span&gt;" style="ellipse;whiteSpace=wrap;html=1;align=center;" vertex="1" parent="1">
          <mxGeometry x="-260" y="440" width="100" height="40" as="geometry" />
        </mxCell>
        <mxCell id="ONjoq6IzzjtHBm0ZLrr7-69" value="" style="endArrow=none;html=1;rounded=0;exitX=1;exitY=1;exitDx=0;exitDy=0;entryX=0.25;entryY=0;entryDx=0;entryDy=0;" edge="1" parent="1" source="ONjoq6IzzjtHBm0ZLrr7-68" target="ONjoq6IzzjtHBm0ZLrr7-50">
          <mxGeometry relative="1" as="geometry">
            <mxPoint x="60" y="600" as="sourcePoint" />
            <mxPoint x="220" y="600" as="targetPoint" />
          </mxGeometry>
        </mxCell>
        <mxCell id="ONjoq6IzzjtHBm0ZLrr7-70" value="brocker_id" style="ellipse;whiteSpace=wrap;html=1;align=center;" vertex="1" parent="1">
          <mxGeometry x="1035" y="-160" width="100" height="40" as="geometry" />
        </mxCell>
        <mxCell id="ONjoq6IzzjtHBm0ZLrr7-71" value="" style="endArrow=none;html=1;rounded=0;exitX=1;exitY=0.5;exitDx=0;exitDy=0;entryX=0;entryY=1;entryDx=0;entryDy=0;" edge="1" parent="1" source="ONjoq6IzzjtHBm0ZLrr7-70" target="ONjoq6IzzjtHBm0ZLrr7-29">
          <mxGeometry relative="1" as="geometry">
            <mxPoint x="1440" y="-80" as="sourcePoint" />
            <mxPoint x="1600" y="-80" as="targetPoint" />
          </mxGeometry>
        </mxCell>
        <mxCell id="ONjoq6IzzjtHBm0ZLrr7-72" value="&lt;span style=&quot;border-bottom: 1px dotted&quot;&gt;market_id&lt;br&gt;&lt;/span&gt;" style="ellipse;whiteSpace=wrap;html=1;align=center;" vertex="1" parent="1">
          <mxGeometry x="440" y="700" width="100" height="40" as="geometry" />
        </mxCell>
        <mxCell id="ONjoq6IzzjtHBm0ZLrr7-73" value="" style="endArrow=none;html=1;rounded=0;exitX=1;exitY=0.25;exitDx=0;exitDy=0;entryX=0;entryY=1;entryDx=0;entryDy=0;" edge="1" parent="1" source="G-gwL_Z2dPmAygsZRbij-168" target="ONjoq6IzzjtHBm0ZLrr7-72">
          <mxGeometry relative="1" as="geometry">
            <mxPoint x="680" y="730" as="sourcePoint" />
            <mxPoint x="840" y="730" as="targetPoint" />
          </mxGeometry>
        </mxCell>
        <mxCell id="ONjoq6IzzjtHBm0ZLrr7-74" value="Relationship" style="shape=rhombus;perimeter=rhombusPerimeter;whiteSpace=wrap;html=1;align=center;" vertex="1" parent="1">
          <mxGeometry x="-390" y="850" width="120" height="60" as="geometry" />
        </mxCell>
        <mxCell id="ONjoq6IzzjtHBm0ZLrr7-75" value="" style="endArrow=none;html=1;rounded=0;entryX=0;entryY=0.75;entryDx=0;entryDy=0;exitX=1;exitY=0.5;exitDx=0;exitDy=0;" edge="1" parent="1" source="ONjoq6IzzjtHBm0ZLrr7-74" target="G-gwL_Z2dPmAygsZRbij-168">
          <mxGeometry relative="1" as="geometry">
            <mxPoint x="-270" y="893.28" as="sourcePoint" />
            <mxPoint x="140" y="830" as="targetPoint" />
            <Array as="points">
              <mxPoint x="40" y="880" />
              <mxPoint x="40" y="823" />
            </Array>
          </mxGeometry>
        </mxCell>
        <mxCell id="ONjoq6IzzjtHBm0ZLrr7-76" value="N" style="resizable=0;html=1;whiteSpace=wrap;align=right;verticalAlign=bottom;" connectable="0" vertex="1" parent="ONjoq6IzzjtHBm0ZLrr7-75">
          <mxGeometry x="1" relative="1" as="geometry" />
        </mxCell>
        <mxCell id="ONjoq6IzzjtHBm0ZLrr7-78" value="" style="endArrow=none;html=1;rounded=0;exitX=0.5;exitY=0;exitDx=0;exitDy=0;entryX=0;entryY=0.25;entryDx=0;entryDy=0;" edge="1" parent="1" source="ONjoq6IzzjtHBm0ZLrr7-74" target="G-gwL_Z2dPmAygsZRbij-37">
          <mxGeometry relative="1" as="geometry">
            <mxPoint x="600" y="840" as="sourcePoint" />
            <mxPoint x="-330" y="-60" as="targetPoint" />
            <Array as="points">
              <mxPoint x="-330" y="360" />
              <mxPoint x="-330" y="-40" />
              <mxPoint x="780" y="-30" />
              <mxPoint x="780" />
            </Array>
          </mxGeometry>
        </mxCell>
        <mxCell id="ONjoq6IzzjtHBm0ZLrr7-79" value="1" style="resizable=0;html=1;whiteSpace=wrap;align=right;verticalAlign=bottom;" connectable="0" vertex="1" parent="ONjoq6IzzjtHBm0ZLrr7-78">
          <mxGeometry x="1" relative="1" as="geometry" />
        </mxCell>
        <mxCell id="ONjoq6IzzjtHBm0ZLrr7-82" value="&lt;span style=&quot;border-bottom: 1px dotted&quot;&gt;broker_id&lt;br&gt;&lt;/span&gt;" style="ellipse;whiteSpace=wrap;html=1;align=center;" vertex="1" parent="1">
          <mxGeometry x="1280" y="535" width="100" height="40" as="geometry" />
        </mxCell>
        <mxCell id="ONjoq6IzzjtHBm0ZLrr7-83" value="" style="endArrow=none;html=1;rounded=0;exitX=1;exitY=0;exitDx=0;exitDy=0;entryX=0;entryY=1;entryDx=0;entryDy=0;" edge="1" parent="1" source="ONjoq6IzzjtHBm0ZLrr7-82" target="G-gwL_Z2dPmAygsZRbij-90">
          <mxGeometry relative="1" as="geometry">
            <mxPoint x="1700" y="460" as="sourcePoint" />
            <mxPoint x="1860" y="460" as="targetPoint" />
          </mxGeometry>
        </mxCell>
        <mxCell id="ONjoq6IzzjtHBm0ZLrr7-84" value="Relationship" style="shape=rhombus;perimeter=rhombusPerimeter;whiteSpace=wrap;html=1;align=center;" vertex="1" parent="1">
          <mxGeometry x="1420" y="40" width="120" height="60" as="geometry" />
        </mxCell>
        <mxCell id="ONjoq6IzzjtHBm0ZLrr7-86" value="" style="endArrow=none;html=1;rounded=0;exitX=0.5;exitY=1;exitDx=0;exitDy=0;entryX=0.75;entryY=0;entryDx=0;entryDy=0;" edge="1" parent="1" source="ONjoq6IzzjtHBm0ZLrr7-84" target="G-gwL_Z2dPmAygsZRbij-90">
          <mxGeometry relative="1" as="geometry">
            <mxPoint x="1700" y="250" as="sourcePoint" />
            <mxPoint x="1860" y="250" as="targetPoint" />
          </mxGeometry>
        </mxCell>
        <mxCell id="ONjoq6IzzjtHBm0ZLrr7-87" value="N" style="resizable=0;html=1;whiteSpace=wrap;align=right;verticalAlign=bottom;" connectable="0" vertex="1" parent="ONjoq6IzzjtHBm0ZLrr7-86">
          <mxGeometry x="1" relative="1" as="geometry" />
        </mxCell>
        <mxCell id="ONjoq6IzzjtHBm0ZLrr7-88" value="" style="endArrow=none;html=1;rounded=0;entryX=0.75;entryY=1;entryDx=0;entryDy=0;exitX=0.5;exitY=0;exitDx=0;exitDy=0;" edge="1" parent="1" source="ONjoq6IzzjtHBm0ZLrr7-84" target="ONjoq6IzzjtHBm0ZLrr7-29">
          <mxGeometry relative="1" as="geometry">
            <mxPoint x="1700" y="60" as="sourcePoint" />
            <mxPoint x="1860" y="60" as="targetPoint" />
            <Array as="points">
              <mxPoint x="1480" y="-110" />
              <mxPoint x="1245" y="-110" />
            </Array>
          </mxGeometry>
        </mxCell>
        <mxCell id="ONjoq6IzzjtHBm0ZLrr7-89" value="1" style="resizable=0;html=1;whiteSpace=wrap;align=right;verticalAlign=bottom;" connectable="0" vertex="1" parent="ONjoq6IzzjtHBm0ZLrr7-88">
          <mxGeometry x="1" relative="1" as="geometry" />
        </mxCell>
      </root>
    </mxGraphModel>
  </diagram>
</mxfile>
